<mxfile host="app.diagrams.net" modified="2020-10-22T19:22:10.373Z" agent="5.0 (Windows NT 10.0; Win64; x64) AppleWebKit/537.36 (KHTML, like Gecko) Chrome/86.0.4240.99 Safari/537.36" etag="H2g1y-VchrjIjfMuZuNZ" version="13.8.0" type="github">
  <diagram id="VKt3ycOdlRzEC3sC6pnN" name="Page-1">
    <mxGraphModel dx="5431" dy="1109" grid="1" gridSize="10" guides="1" tooltips="1" connect="1" arrows="1" fold="1" page="1" pageScale="1" pageWidth="850" pageHeight="1100" math="0" shadow="0">
      <root>
        <mxCell id="0" />
        <mxCell id="1" parent="0" />
        <mxCell id="yVmeeTijZnfeH4OOuYgs-2" value="&lt;div&gt;1&lt;span&gt; &lt;/span&gt;Clickable&lt;/div&gt;&lt;div&gt;2&lt;span&gt; &lt;/span&gt;Text Length&lt;/div&gt;&lt;div&gt;3&lt;span&gt; &lt;/span&gt;screenUIratio&lt;/div&gt;&lt;div&gt;4&lt;span&gt; &lt;/span&gt;contourCount&lt;/div&gt;&lt;div&gt;5&lt;span&gt; &lt;/span&gt;Multi-page Slider&lt;/div&gt;&lt;div&gt;6&lt;span&gt; &lt;/span&gt;Text&lt;/div&gt;&lt;div&gt;7&lt;span&gt; &lt;/span&gt;Talking box/Text box&lt;/div&gt;&lt;div&gt;8&lt;span&gt; &lt;/span&gt;Stage Transition Button&lt;/div&gt;&lt;div&gt;9&lt;span&gt; &lt;/span&gt;Confirmation Button&lt;/div&gt;&lt;div&gt;10&lt;span&gt; &lt;/span&gt;Highlight&lt;/div&gt;&lt;div&gt;11&lt;span&gt; &lt;/span&gt;Mask&lt;/div&gt;&lt;div&gt;12&lt;span&gt; &lt;/span&gt;Arrow&lt;/div&gt;&lt;div&gt;13&lt;span&gt; &lt;/span&gt;Virtual Hand&lt;/div&gt;&lt;div&gt;14&lt;span&gt; &lt;/span&gt;Demo Animation/Video&lt;/div&gt;&lt;div&gt;15&lt;span&gt; &lt;/span&gt;Static Image&lt;/div&gt;&lt;div&gt;16&lt;span&gt; &lt;/span&gt;Top Word: tap&lt;/div&gt;&lt;div&gt;17&lt;span&gt; &lt;/span&gt;Top Word: see&lt;/div&gt;&lt;div&gt;18&lt;span&gt; &lt;/span&gt;Top Word: use&lt;/div&gt;&lt;div&gt;19&lt;span&gt; &lt;/span&gt;Top Word: text&lt;/div&gt;&lt;div&gt;20&lt;span&gt; &lt;/span&gt;Top Word: next&lt;/div&gt;&lt;div&gt;21&lt;span&gt; &lt;/span&gt;Top Word: find&lt;/div&gt;&lt;div&gt;22&lt;span&gt; &lt;/span&gt;Top Word: view&lt;/div&gt;&lt;div&gt;23&lt;span&gt; &lt;/span&gt;Top Word: add&lt;/div&gt;&lt;div&gt;24&lt;span&gt; &lt;/span&gt;Top Word: select&lt;/div&gt;&lt;div&gt;25&lt;span&gt; &lt;/span&gt;Top Word: move&lt;/div&gt;&lt;div&gt;26&lt;span&gt; &lt;/span&gt;Top Word: new&lt;/div&gt;&lt;div&gt;27&lt;span&gt; &lt;/span&gt;Top Word: red&lt;/div&gt;&lt;div&gt;28&lt;span&gt; &lt;/span&gt;Top Word: click&lt;/div&gt;&lt;div&gt;29&lt;span&gt; &lt;/span&gt;Top Word: like&lt;/div&gt;&lt;div&gt;30&lt;span&gt; &lt;/span&gt;Top Word: start&lt;/div&gt;&lt;div&gt;31&lt;span&gt; &lt;/span&gt;Top Word: button&lt;/div&gt;&lt;div&gt;32&lt;span&gt; &lt;/span&gt;Top Word: drag&lt;/div&gt;&lt;div&gt;33&lt;span&gt; &lt;/span&gt;Top Word: get&lt;/div&gt;&lt;div&gt;34&lt;span&gt; &lt;/span&gt;Top Word: please&lt;/div&gt;&lt;div&gt;35&lt;span&gt; &lt;/span&gt;Top Word: press&lt;/div&gt;&lt;div&gt;36&lt;span&gt; &lt;/span&gt;Top Word: save&lt;/div&gt;&lt;div&gt;37&lt;span&gt; &lt;/span&gt;Top Word: zoom&lt;/div&gt;&lt;div&gt;38&lt;span&gt; &lt;/span&gt;Top Word: first&lt;/div&gt;&lt;div&gt;39&lt;span&gt; &lt;/span&gt;Top Word: go&lt;/div&gt;&lt;div&gt;40&lt;span&gt; &lt;/span&gt;Top Word: got&lt;/div&gt;&lt;div&gt;41&lt;span&gt; &lt;/span&gt;Top Word: hold&lt;/div&gt;&lt;div&gt;42&lt;span&gt; &lt;/span&gt;Top Word: long&lt;/div&gt;&lt;div&gt;43&lt;span&gt; &lt;/span&gt;Top Word: room&lt;/div&gt;&lt;div&gt;44&lt;span&gt; &lt;/span&gt;Top Word: try&lt;/div&gt;&lt;div&gt;45&lt;span&gt; &lt;/span&gt;Top Word: blue&lt;/div&gt;&lt;div&gt;&lt;br&gt;&lt;/div&gt;" style="text;html=1;strokeColor=none;fillColor=none;align=left;verticalAlign=middle;whiteSpace=wrap;rounded=0;fontColor=#000000;" parent="1" vertex="1">
          <mxGeometry x="-1120" y="200.04" width="200" height="800" as="geometry" />
        </mxCell>
        <mxCell id="yVmeeTijZnfeH4OOuYgs-16" style="rounded=1;orthogonalLoop=1;jettySize=auto;html=1;entryX=0.5;entryY=0;entryDx=0;entryDy=0;fontSize=20;fontColor=#000000;align=center;verticalAlign=middle;" parent="1" source="yVmeeTijZnfeH4OOuYgs-5" target="yVmeeTijZnfeH4OOuYgs-12" edge="1">
          <mxGeometry relative="1" as="geometry" />
        </mxCell>
        <mxCell id="yVmeeTijZnfeH4OOuYgs-17" value="Yes" style="edgeLabel;html=1;align=center;verticalAlign=middle;resizable=0;points=[];fontSize=20;fontColor=#000000;" parent="yVmeeTijZnfeH4OOuYgs-16" vertex="1" connectable="0">
          <mxGeometry x="0.3171" y="6" relative="1" as="geometry">
            <mxPoint x="29.230000000000004" y="-18.14" as="offset" />
          </mxGeometry>
        </mxCell>
        <mxCell id="yVmeeTijZnfeH4OOuYgs-19" style="edgeStyle=none;rounded=1;orthogonalLoop=1;jettySize=auto;html=1;exitX=0.75;exitY=1;exitDx=0;exitDy=0;entryX=0.5;entryY=0;entryDx=0;entryDy=0;fontSize=20;fontColor=#000000;align=center;verticalAlign=middle;" parent="1" source="yVmeeTijZnfeH4OOuYgs-5" target="yVmeeTijZnfeH4OOuYgs-6" edge="1">
          <mxGeometry relative="1" as="geometry" />
        </mxCell>
        <mxCell id="yVmeeTijZnfeH4OOuYgs-20" value="No" style="edgeLabel;html=1;align=center;verticalAlign=middle;resizable=0;points=[];fontSize=20;fontColor=#000000;" parent="yVmeeTijZnfeH4OOuYgs-19" vertex="1" connectable="0">
          <mxGeometry x="0.1999" y="-2" relative="1" as="geometry">
            <mxPoint x="-35.92" y="-10.07" as="offset" />
          </mxGeometry>
        </mxCell>
        <mxCell id="yVmeeTijZnfeH4OOuYgs-5" value="&lt;span style=&quot;color: rgb(0 , 0 , 0) ; font-family: &amp;#34;helvetica&amp;#34; ; font-size: 16px ; font-style: normal ; letter-spacing: normal ; text-indent: 0px ; text-transform: none ; word-spacing: 0px ; background-color: rgb(248 , 249 , 250) ; display: inline ; float: none&quot;&gt;Static Image&lt;/span&gt;" style="text;whiteSpace=wrap;html=1;fontColor=#333333;fontStyle=1;fontSize=16;fillColor=#f5f5f5;strokeColor=#666666;align=center;verticalAlign=middle;" parent="1" vertex="1">
          <mxGeometry x="540" y="240" width="180" height="40" as="geometry" />
        </mxCell>
        <mxCell id="yVmeeTijZnfeH4OOuYgs-35" style="edgeStyle=none;rounded=1;orthogonalLoop=1;jettySize=auto;html=1;entryX=0.5;entryY=0;entryDx=0;entryDy=0;fontSize=20;fontColor=#000000;align=center;exitX=0.75;exitY=1;exitDx=0;exitDy=0;verticalAlign=middle;" parent="1" source="yVmeeTijZnfeH4OOuYgs-6" target="yVmeeTijZnfeH4OOuYgs-7" edge="1">
          <mxGeometry relative="1" as="geometry" />
        </mxCell>
        <mxCell id="yVmeeTijZnfeH4OOuYgs-145" value="No" style="edgeLabel;html=1;align=center;verticalAlign=middle;resizable=0;points=[];fontSize=20;fontColor=#000000;" parent="yVmeeTijZnfeH4OOuYgs-35" vertex="1" connectable="0">
          <mxGeometry x="-0.2135" y="4" relative="1" as="geometry">
            <mxPoint as="offset" />
          </mxGeometry>
        </mxCell>
        <mxCell id="yVmeeTijZnfeH4OOuYgs-44" style="edgeStyle=none;rounded=1;orthogonalLoop=1;jettySize=auto;html=1;exitX=0.25;exitY=1;exitDx=0;exitDy=0;entryX=0.5;entryY=0;entryDx=0;entryDy=0;fontSize=20;fontColor=#000000;align=center;verticalAlign=middle;" parent="1" source="yVmeeTijZnfeH4OOuYgs-6" target="yVmeeTijZnfeH4OOuYgs-43" edge="1">
          <mxGeometry relative="1" as="geometry" />
        </mxCell>
        <mxCell id="yVmeeTijZnfeH4OOuYgs-45" value="Yes" style="edgeLabel;html=1;align=center;verticalAlign=middle;resizable=0;points=[];fontSize=20;fontColor=#000000;" parent="yVmeeTijZnfeH4OOuYgs-44" vertex="1" connectable="0">
          <mxGeometry x="-0.443" y="4" relative="1" as="geometry">
            <mxPoint x="-8.59" y="15.37" as="offset" />
          </mxGeometry>
        </mxCell>
        <mxCell id="yVmeeTijZnfeH4OOuYgs-6" value="&lt;span style=&quot;color: rgb(0 , 0 , 0) ; font-family: &amp;#34;helvetica&amp;#34; ; font-size: 20px ; font-style: normal ; font-weight: 400 ; letter-spacing: normal ; text-indent: 0px ; text-transform: none ; word-spacing: 0px ; background-color: rgb(248 , 249 , 250) ; display: inline ; float: none&quot;&gt;ContourCongest &amp;lt;348&lt;/span&gt;" style="text;whiteSpace=wrap;html=1;fontSize=20;fontColor=#333333;fillColor=#f5f5f5;strokeColor=#666666;align=center;verticalAlign=middle;" parent="1" vertex="1">
          <mxGeometry x="752" y="360" width="200" height="40" as="geometry" />
        </mxCell>
        <mxCell id="yVmeeTijZnfeH4OOuYgs-37" style="edgeStyle=none;rounded=1;orthogonalLoop=1;jettySize=auto;html=1;exitX=0.75;exitY=1;exitDx=0;exitDy=0;entryX=0.5;entryY=0;entryDx=0;entryDy=0;fontSize=20;fontColor=#000000;align=center;verticalAlign=middle;" parent="1" source="yVmeeTijZnfeH4OOuYgs-7" target="yVmeeTijZnfeH4OOuYgs-36" edge="1">
          <mxGeometry relative="1" as="geometry" />
        </mxCell>
        <mxCell id="yVmeeTijZnfeH4OOuYgs-141" value="No" style="edgeLabel;html=1;align=center;verticalAlign=middle;resizable=0;points=[];fontSize=20;fontColor=#000000;" parent="yVmeeTijZnfeH4OOuYgs-37" vertex="1" connectable="0">
          <mxGeometry x="-0.2977" y="-1" relative="1" as="geometry">
            <mxPoint x="11.75" y="0.97" as="offset" />
          </mxGeometry>
        </mxCell>
        <mxCell id="yVmeeTijZnfeH4OOuYgs-38" style="edgeStyle=none;rounded=1;orthogonalLoop=1;jettySize=auto;html=1;exitX=0.25;exitY=1;exitDx=0;exitDy=0;entryX=0.5;entryY=0;entryDx=0;entryDy=0;fontSize=20;fontColor=#000000;align=center;verticalAlign=middle;" parent="1" source="yVmeeTijZnfeH4OOuYgs-7" target="yVmeeTijZnfeH4OOuYgs-9" edge="1">
          <mxGeometry relative="1" as="geometry" />
        </mxCell>
        <mxCell id="yVmeeTijZnfeH4OOuYgs-147" value="Yes" style="edgeLabel;html=1;align=center;verticalAlign=middle;resizable=0;points=[];fontSize=20;fontColor=#000000;" parent="yVmeeTijZnfeH4OOuYgs-38" vertex="1" connectable="0">
          <mxGeometry x="0.2618" y="-1" relative="1" as="geometry">
            <mxPoint x="5.430000000000001" y="-10.439999999999998" as="offset" />
          </mxGeometry>
        </mxCell>
        <mxCell id="yVmeeTijZnfeH4OOuYgs-7" value="&lt;span style=&quot;color: rgb(0 , 0 , 0) ; font-family: &amp;quot;helvetica&amp;quot; ; font-size: 22px ; font-style: normal ; font-weight: 400 ; letter-spacing: normal ; text-indent: 0px ; text-transform: none ; word-spacing: 0px ; background-color: rgb(248 , 249 , 250) ; display: inline ; float: none&quot;&gt;Highlight&lt;/span&gt;" style="text;whiteSpace=wrap;html=1;fontSize=22;fontColor=#333333;fillColor=#f5f5f5;strokeColor=#666666;align=center;verticalAlign=middle;" parent="1" vertex="1">
          <mxGeometry x="1080" y="480.00000000000006" width="130" height="40" as="geometry" />
        </mxCell>
        <mxCell id="yVmeeTijZnfeH4OOuYgs-86" style="edgeStyle=none;rounded=1;orthogonalLoop=1;jettySize=auto;html=1;exitX=0.75;exitY=1;exitDx=0;exitDy=0;entryX=0.5;entryY=0;entryDx=0;entryDy=0;fontSize=20;fontColor=#000000;align=center;verticalAlign=middle;" parent="1" source="yVmeeTijZnfeH4OOuYgs-9" target="yVmeeTijZnfeH4OOuYgs-85" edge="1">
          <mxGeometry relative="1" as="geometry" />
        </mxCell>
        <mxCell id="yVmeeTijZnfeH4OOuYgs-87" value="No" style="edgeLabel;html=1;align=center;verticalAlign=middle;resizable=0;points=[];fontSize=20;fontColor=#000000;" parent="yVmeeTijZnfeH4OOuYgs-86" vertex="1" connectable="0">
          <mxGeometry x="-0.3333" y="6" relative="1" as="geometry">
            <mxPoint x="-2.6799999999999997" y="13.37" as="offset" />
          </mxGeometry>
        </mxCell>
        <mxCell id="yVmeeTijZnfeH4OOuYgs-89" style="edgeStyle=none;rounded=1;orthogonalLoop=1;jettySize=auto;html=1;entryX=0.5;entryY=0;entryDx=0;entryDy=0;fontSize=20;fontColor=#000000;align=center;exitX=0.25;exitY=1;exitDx=0;exitDy=0;verticalAlign=middle;" parent="1" source="yVmeeTijZnfeH4OOuYgs-9" target="yVmeeTijZnfeH4OOuYgs-88" edge="1">
          <mxGeometry relative="1" as="geometry">
            <mxPoint x="755" y="911" as="sourcePoint" />
          </mxGeometry>
        </mxCell>
        <mxCell id="yVmeeTijZnfeH4OOuYgs-90" value="Yes" style="edgeLabel;html=1;align=center;verticalAlign=middle;resizable=0;points=[];fontSize=20;fontColor=#000000;" parent="yVmeeTijZnfeH4OOuYgs-89" vertex="1" connectable="0">
          <mxGeometry x="-0.6118" y="2" relative="1" as="geometry">
            <mxPoint x="-2.570000000000001" y="24.79" as="offset" />
          </mxGeometry>
        </mxCell>
        <mxCell id="yVmeeTijZnfeH4OOuYgs-9" value="&lt;span style=&quot;color: rgb(0 , 0 , 0) ; font-family: &amp;#34;helvetica&amp;#34; ; font-size: 20px ; font-style: normal ; font-weight: 400 ; letter-spacing: normal ; text-indent: 0px ; text-transform: none ; word-spacing: 0px ; background-color: rgb(248 , 249 , 250) ; display: inline ; float: none&quot;&gt;Contour &amp;lt;348&lt;/span&gt;" style="text;whiteSpace=wrap;html=1;fontSize=20;fontColor=#333333;fillColor=#f5f5f5;strokeColor=#666666;align=center;verticalAlign=middle;" parent="1" vertex="1">
          <mxGeometry x="970" y="600" width="200" height="40" as="geometry" />
        </mxCell>
        <mxCell id="yVmeeTijZnfeH4OOuYgs-80" style="edgeStyle=none;rounded=1;orthogonalLoop=1;jettySize=auto;html=1;exitX=0.25;exitY=1;exitDx=0;exitDy=0;entryX=0.5;entryY=0;entryDx=0;entryDy=0;fontSize=20;fontColor=#000000;align=center;verticalAlign=middle;" parent="1" source="yVmeeTijZnfeH4OOuYgs-10" target="yVmeeTijZnfeH4OOuYgs-79" edge="1">
          <mxGeometry relative="1" as="geometry" />
        </mxCell>
        <mxCell id="yVmeeTijZnfeH4OOuYgs-81" value="Yes" style="edgeLabel;html=1;align=center;verticalAlign=middle;resizable=0;points=[];fontSize=20;fontColor=#000000;" parent="yVmeeTijZnfeH4OOuYgs-80" vertex="1" connectable="0">
          <mxGeometry x="-0.6042" y="-2" relative="1" as="geometry">
            <mxPoint x="1.19" y="24.73" as="offset" />
          </mxGeometry>
        </mxCell>
        <mxCell id="yVmeeTijZnfeH4OOuYgs-83" style="edgeStyle=none;rounded=1;orthogonalLoop=1;jettySize=auto;html=1;exitX=0.75;exitY=1;exitDx=0;exitDy=0;entryX=0.5;entryY=0;entryDx=0;entryDy=0;fontSize=20;fontColor=#000000;align=center;verticalAlign=middle;" parent="1" source="yVmeeTijZnfeH4OOuYgs-10" target="yVmeeTijZnfeH4OOuYgs-82" edge="1">
          <mxGeometry relative="1" as="geometry" />
        </mxCell>
        <mxCell id="yVmeeTijZnfeH4OOuYgs-139" value="No" style="edgeLabel;html=1;align=center;verticalAlign=middle;resizable=0;points=[];fontSize=20;fontColor=#000000;" parent="yVmeeTijZnfeH4OOuYgs-83" vertex="1" connectable="0">
          <mxGeometry x="-0.2552" y="-1" relative="1" as="geometry">
            <mxPoint x="0.37" y="10.6" as="offset" />
          </mxGeometry>
        </mxCell>
        <mxCell id="yVmeeTijZnfeH4OOuYgs-10" value="&lt;span style=&quot;color: rgb(0, 0, 0); font-family: helvetica; font-size: 20px; font-style: normal; font-weight: 400; letter-spacing: normal; text-indent: 0px; text-transform: none; word-spacing: 0px; background-color: rgb(248, 249, 250); display: inline; float: none;&quot;&gt;4&lt;/span&gt;&lt;span style=&quot;color: rgb(0, 0, 0); font-family: helvetica; font-size: 20px; font-style: normal; font-weight: 400; letter-spacing: normal; text-indent: 0px; text-transform: none; word-spacing: 0px; background-color: rgb(248, 249, 250);&quot;&gt; &lt;/span&gt;&lt;span style=&quot;color: rgb(0, 0, 0); font-family: helvetica; font-size: 20px; font-style: normal; font-weight: 400; letter-spacing: normal; text-indent: 0px; text-transform: none; word-spacing: 0px; background-color: rgb(248, 249, 250); display: inline; float: none;&quot;&gt;contourCount &amp;lt;348&lt;/span&gt;" style="text;whiteSpace=wrap;html=1;fontSize=20;fontColor=#333333;fillColor=#f5f5f5;strokeColor=#666666;align=center;verticalAlign=middle;" parent="1" vertex="1">
          <mxGeometry x="-80" y="840" width="200" height="40" as="geometry" />
        </mxCell>
        <mxCell id="yVmeeTijZnfeH4OOuYgs-14" style="rounded=1;orthogonalLoop=1;jettySize=auto;html=1;exitX=0.75;exitY=1;exitDx=0;exitDy=0;fontSize=20;fontColor=#000000;align=center;verticalAlign=middle;" parent="1" source="yVmeeTijZnfeH4OOuYgs-12" target="yVmeeTijZnfeH4OOuYgs-13" edge="1">
          <mxGeometry relative="1" as="geometry" />
        </mxCell>
        <mxCell id="yVmeeTijZnfeH4OOuYgs-15" value="No" style="edgeLabel;html=1;align=center;verticalAlign=middle;resizable=0;points=[];fontSize=20;fontColor=#000000;" parent="yVmeeTijZnfeH4OOuYgs-14" vertex="1" connectable="0">
          <mxGeometry x="-0.3684" y="4" relative="1" as="geometry">
            <mxPoint x="-5.49" y="4.21" as="offset" />
          </mxGeometry>
        </mxCell>
        <mxCell id="yVmeeTijZnfeH4OOuYgs-21" style="edgeStyle=none;rounded=1;orthogonalLoop=1;jettySize=auto;html=1;exitX=0.25;exitY=1;exitDx=0;exitDy=0;fontSize=20;fontColor=#000000;align=center;verticalAlign=middle;" parent="1" source="yVmeeTijZnfeH4OOuYgs-12" target="yVmeeTijZnfeH4OOuYgs-18" edge="1">
          <mxGeometry relative="1" as="geometry" />
        </mxCell>
        <mxCell id="yVmeeTijZnfeH4OOuYgs-153" value="Yes" style="edgeLabel;html=1;align=center;verticalAlign=middle;resizable=0;points=[];fontSize=20;fontColor=#000000;" parent="yVmeeTijZnfeH4OOuYgs-21" vertex="1" connectable="0">
          <mxGeometry x="-0.1869" y="-5" relative="1" as="geometry">
            <mxPoint x="-2.31" y="12.31" as="offset" />
          </mxGeometry>
        </mxCell>
        <mxCell id="yVmeeTijZnfeH4OOuYgs-12" value="&lt;span style=&quot;color: rgb(0 , 0 , 0) ; font-family: &amp;#34;helvetica&amp;#34; ; font-size: 20px ; font-style: normal ; font-weight: 400 ; letter-spacing: normal ; text-indent: 0px ; text-transform: none ; word-spacing: 0px ; background-color: rgb(248 , 249 , 250) ; display: inline ; float: none&quot;&gt;Screen-UI ratio&amp;nbsp;&amp;lt; 0.3&lt;/span&gt;" style="text;whiteSpace=wrap;html=1;fontSize=20;fontColor=#333333;fillColor=#f5f5f5;strokeColor=#666666;align=center;verticalAlign=middle;" parent="1" vertex="1">
          <mxGeometry x="335" y="360" width="205" height="40" as="geometry" />
        </mxCell>
        <mxCell id="yVmeeTijZnfeH4OOuYgs-56" style="edgeStyle=none;rounded=1;orthogonalLoop=1;jettySize=auto;html=1;exitX=0.5;exitY=1;exitDx=0;exitDy=0;entryX=0.5;entryY=0;entryDx=0;entryDy=0;fontSize=20;fontColor=#000000;align=center;verticalAlign=middle;" parent="1" source="yVmeeTijZnfeH4OOuYgs-13" target="yVmeeTijZnfeH4OOuYgs-55" edge="1">
          <mxGeometry relative="1" as="geometry" />
        </mxCell>
        <mxCell id="yVmeeTijZnfeH4OOuYgs-57" value="No" style="edgeLabel;html=1;align=center;verticalAlign=middle;resizable=0;points=[];fontSize=20;fontColor=#000000;labelBorderColor=none;" parent="yVmeeTijZnfeH4OOuYgs-56" vertex="1" connectable="0">
          <mxGeometry x="0.4133" y="-2" relative="1" as="geometry">
            <mxPoint x="2" y="-27.14" as="offset" />
          </mxGeometry>
        </mxCell>
        <mxCell id="yVmeeTijZnfeH4OOuYgs-60" style="edgeStyle=none;rounded=1;orthogonalLoop=1;jettySize=auto;html=1;exitX=0.25;exitY=1;exitDx=0;exitDy=0;entryX=0.5;entryY=0;entryDx=0;entryDy=0;fontSize=20;fontColor=#000000;align=center;verticalAlign=middle;" parent="1" source="yVmeeTijZnfeH4OOuYgs-13" target="yVmeeTijZnfeH4OOuYgs-59" edge="1">
          <mxGeometry relative="1" as="geometry" />
        </mxCell>
        <mxCell id="yVmeeTijZnfeH4OOuYgs-134" value="Yes" style="edgeLabel;html=1;align=center;verticalAlign=middle;resizable=0;points=[];fontSize=20;fontColor=#000000;" parent="yVmeeTijZnfeH4OOuYgs-60" vertex="1" connectable="0">
          <mxGeometry x="0.2792" y="1" relative="1" as="geometry">
            <mxPoint x="-1" y="-20.83" as="offset" />
          </mxGeometry>
        </mxCell>
        <mxCell id="yVmeeTijZnfeH4OOuYgs-13" value="&lt;span style=&quot;color: rgb(0 , 0 , 0) ; font-family: &amp;#34;helvetica&amp;#34; ; font-size: 20px ; font-style: normal ; font-weight: 400 ; letter-spacing: normal ; text-indent: 0px ; text-transform: none ; word-spacing: 0px ; background-color: rgb(248 , 249 , 250) ; display: inline ; float: none&quot;&gt;Screen-UI ratio &amp;lt; 0.507&lt;/span&gt;" style="text;whiteSpace=wrap;html=1;fontSize=20;fontColor=#333333;fillColor=#f5f5f5;strokeColor=#666666;align=center;verticalAlign=middle;" parent="1" vertex="1">
          <mxGeometry x="373" y="480" width="220" height="40" as="geometry" />
        </mxCell>
        <mxCell id="yVmeeTijZnfeH4OOuYgs-26" style="edgeStyle=none;rounded=1;orthogonalLoop=1;jettySize=auto;html=1;exitX=0.25;exitY=1;exitDx=0;exitDy=0;entryX=0.5;entryY=0;entryDx=0;entryDy=0;fontSize=20;fontColor=#000000;align=center;verticalAlign=middle;" parent="1" source="yVmeeTijZnfeH4OOuYgs-18" target="yVmeeTijZnfeH4OOuYgs-23" edge="1">
          <mxGeometry relative="1" as="geometry" />
        </mxCell>
        <mxCell id="yVmeeTijZnfeH4OOuYgs-27" value="Yes" style="edgeLabel;html=1;align=center;verticalAlign=middle;resizable=0;points=[];fontSize=20;fontColor=#000000;" parent="yVmeeTijZnfeH4OOuYgs-26" vertex="1" connectable="0">
          <mxGeometry x="-0.305" y="-4" relative="1" as="geometry">
            <mxPoint x="-10.26" y="14.79" as="offset" />
          </mxGeometry>
        </mxCell>
        <mxCell id="yVmeeTijZnfeH4OOuYgs-28" style="edgeStyle=none;rounded=1;orthogonalLoop=1;jettySize=auto;html=1;exitX=0.75;exitY=1;exitDx=0;exitDy=0;entryX=0.5;entryY=0;entryDx=0;entryDy=0;fontSize=20;fontColor=#000000;align=center;verticalAlign=middle;" parent="1" source="yVmeeTijZnfeH4OOuYgs-18" target="yVmeeTijZnfeH4OOuYgs-25" edge="1">
          <mxGeometry relative="1" as="geometry" />
        </mxCell>
        <mxCell id="yVmeeTijZnfeH4OOuYgs-29" value="No" style="edgeLabel;html=1;align=center;verticalAlign=middle;resizable=0;points=[];fontSize=20;fontColor=#000000;" parent="yVmeeTijZnfeH4OOuYgs-28" vertex="1" connectable="0">
          <mxGeometry x="-0.4439" y="-1" relative="1" as="geometry">
            <mxPoint x="10.91" y="17.13" as="offset" />
          </mxGeometry>
        </mxCell>
        <mxCell id="yVmeeTijZnfeH4OOuYgs-18" value="&lt;span style=&quot;color: rgb(0 , 0 , 0) ; font-family: &amp;#34;helvetica&amp;#34; ; font-size: 20px ; font-style: normal ; font-weight: 400 ; letter-spacing: normal ; text-indent: 0px ; text-transform: none ; word-spacing: 0px ; background-color: rgb(248 , 249 , 250) ; display: inline ; float: none&quot;&gt;Arrow&lt;/span&gt;" style="text;whiteSpace=wrap;html=1;fontSize=20;fontColor=#333333;fillColor=#f5f5f5;strokeColor=#666666;align=center;verticalAlign=middle;" parent="1" vertex="1">
          <mxGeometry x="80" y="480" width="110" height="40" as="geometry" />
        </mxCell>
        <mxCell id="yVmeeTijZnfeH4OOuYgs-63" style="edgeStyle=none;rounded=1;orthogonalLoop=1;jettySize=auto;html=1;entryX=0.5;entryY=0;entryDx=0;entryDy=0;fontSize=20;fontColor=#000000;align=center;verticalAlign=middle;" parent="1" source="yVmeeTijZnfeH4OOuYgs-23" target="yVmeeTijZnfeH4OOuYgs-62" edge="1">
          <mxGeometry relative="1" as="geometry" />
        </mxCell>
        <mxCell id="yVmeeTijZnfeH4OOuYgs-64" value="No" style="edgeLabel;html=1;align=center;verticalAlign=middle;resizable=0;points=[];fontSize=20;fontColor=#000000;" parent="yVmeeTijZnfeH4OOuYgs-63" vertex="1" connectable="0">
          <mxGeometry x="0.356" y="-1" relative="1" as="geometry">
            <mxPoint x="10.2" y="-23.39" as="offset" />
          </mxGeometry>
        </mxCell>
        <mxCell id="yVmeeTijZnfeH4OOuYgs-66" style="edgeStyle=none;rounded=1;orthogonalLoop=1;jettySize=auto;html=1;entryX=0.5;entryY=0;entryDx=0;entryDy=0;fontSize=20;fontColor=#000000;align=center;verticalAlign=middle;" parent="1" source="yVmeeTijZnfeH4OOuYgs-23" target="yVmeeTijZnfeH4OOuYgs-65" edge="1">
          <mxGeometry relative="1" as="geometry" />
        </mxCell>
        <mxCell id="yVmeeTijZnfeH4OOuYgs-135" value="Yes" style="edgeLabel;html=1;align=center;verticalAlign=middle;resizable=0;points=[];fontSize=20;fontColor=#000000;" parent="yVmeeTijZnfeH4OOuYgs-66" vertex="1" connectable="0">
          <mxGeometry x="-0.3638" y="1" relative="1" as="geometry">
            <mxPoint x="-18.41" y="3.79" as="offset" />
          </mxGeometry>
        </mxCell>
        <mxCell id="yVmeeTijZnfeH4OOuYgs-23" value="&lt;font style=&quot;font-size: 20px&quot;&gt;&lt;span style=&quot;color: rgb(0, 0, 0); font-family: helvetica; font-style: normal; font-weight: 400; letter-spacing: normal; text-indent: 0px; text-transform: none; word-spacing: 0px; background-color: rgb(248, 249, 250); display: inline; float: none;&quot;&gt;Text Length &amp;lt;15.5&lt;/span&gt;&lt;/font&gt;" style="text;whiteSpace=wrap;html=1;fontSize=20;fontColor=#333333;shadow=1;fillColor=#f5f5f5;strokeColor=#666666;align=center;verticalAlign=middle;" parent="1" vertex="1">
          <mxGeometry x="-50" y="600" width="170" height="40" as="geometry" />
        </mxCell>
        <mxCell id="yVmeeTijZnfeH4OOuYgs-31" style="edgeStyle=none;rounded=1;orthogonalLoop=1;jettySize=auto;html=1;exitX=0.75;exitY=1;exitDx=0;exitDy=0;entryX=0.5;entryY=0;entryDx=0;entryDy=0;fontSize=20;fontColor=#000000;align=center;verticalAlign=middle;" parent="1" source="yVmeeTijZnfeH4OOuYgs-25" target="yVmeeTijZnfeH4OOuYgs-30" edge="1">
          <mxGeometry relative="1" as="geometry" />
        </mxCell>
        <mxCell id="yVmeeTijZnfeH4OOuYgs-67" value="NO" style="edgeLabel;html=1;align=center;verticalAlign=middle;resizable=0;points=[];fontSize=20;fontColor=#000000;" parent="yVmeeTijZnfeH4OOuYgs-31" vertex="1" connectable="0">
          <mxGeometry x="0.389" y="6" relative="1" as="geometry">
            <mxPoint x="-17.61" y="-11.729999999999999" as="offset" />
          </mxGeometry>
        </mxCell>
        <mxCell id="yVmeeTijZnfeH4OOuYgs-34" style="edgeStyle=none;rounded=1;orthogonalLoop=1;jettySize=auto;html=1;exitX=0.25;exitY=1;exitDx=0;exitDy=0;entryX=0.5;entryY=0;entryDx=0;entryDy=0;fontSize=20;fontColor=#000000;align=center;verticalAlign=middle;" parent="1" source="yVmeeTijZnfeH4OOuYgs-25" target="yVmeeTijZnfeH4OOuYgs-33" edge="1">
          <mxGeometry relative="1" as="geometry" />
        </mxCell>
        <mxCell id="yVmeeTijZnfeH4OOuYgs-74" value="Yes" style="edgeLabel;html=1;align=center;verticalAlign=middle;resizable=0;points=[];fontSize=20;fontColor=#000000;" parent="yVmeeTijZnfeH4OOuYgs-34" vertex="1" connectable="0">
          <mxGeometry x="0.156" y="-4" relative="1" as="geometry">
            <mxPoint x="14.1" y="-4.49" as="offset" />
          </mxGeometry>
        </mxCell>
        <mxCell id="yVmeeTijZnfeH4OOuYgs-25" value="&lt;font style=&quot;font-size: 20px&quot;&gt;&lt;span style=&quot;color: rgb(0, 0, 0); font-family: helvetica; font-style: normal; font-weight: 400; letter-spacing: normal; text-indent: 0px; text-transform: none; word-spacing: 0px; background-color: rgb(248, 249, 250); display: inline; float: none;&quot;&gt;Text Length &amp;lt; 22&lt;/span&gt;&lt;/font&gt;" style="text;whiteSpace=wrap;html=1;fontSize=20;fontColor=#333333;shadow=1;fillColor=#f5f5f5;strokeColor=#666666;align=center;verticalAlign=middle;" parent="1" vertex="1">
          <mxGeometry x="140" y="600" width="170" height="40" as="geometry" />
        </mxCell>
        <mxCell id="yVmeeTijZnfeH4OOuYgs-69" style="edgeStyle=none;rounded=1;orthogonalLoop=1;jettySize=auto;html=1;exitX=0.75;exitY=1;exitDx=0;exitDy=0;entryX=0.5;entryY=0;entryDx=0;entryDy=0;fontSize=20;fontColor=#000000;align=center;verticalAlign=middle;" parent="1" source="yVmeeTijZnfeH4OOuYgs-30" target="yVmeeTijZnfeH4OOuYgs-68" edge="1">
          <mxGeometry relative="1" as="geometry" />
        </mxCell>
        <mxCell id="yVmeeTijZnfeH4OOuYgs-136" value="No" style="edgeLabel;html=1;align=center;verticalAlign=middle;resizable=0;points=[];fontSize=20;fontColor=#000000;" parent="yVmeeTijZnfeH4OOuYgs-69" vertex="1" connectable="0">
          <mxGeometry x="-0.2227" y="-1" relative="1" as="geometry">
            <mxPoint x="1" y="9.41" as="offset" />
          </mxGeometry>
        </mxCell>
        <mxCell id="yVmeeTijZnfeH4OOuYgs-72" style="edgeStyle=none;rounded=1;orthogonalLoop=1;jettySize=auto;html=1;exitX=0.25;exitY=1;exitDx=0;exitDy=0;entryX=0.5;entryY=0;entryDx=0;entryDy=0;fontSize=20;fontColor=#000000;align=center;verticalAlign=middle;" parent="1" source="yVmeeTijZnfeH4OOuYgs-30" target="yVmeeTijZnfeH4OOuYgs-71" edge="1">
          <mxGeometry relative="1" as="geometry" />
        </mxCell>
        <mxCell id="yVmeeTijZnfeH4OOuYgs-137" value="Yes" style="edgeLabel;html=1;align=center;verticalAlign=middle;resizable=0;points=[];fontSize=20;fontColor=#000000;" parent="yVmeeTijZnfeH4OOuYgs-72" vertex="1" connectable="0">
          <mxGeometry x="0.1692" y="-1" relative="1" as="geometry">
            <mxPoint x="0.59" y="-7.039999999999999" as="offset" />
          </mxGeometry>
        </mxCell>
        <mxCell id="yVmeeTijZnfeH4OOuYgs-30" value="&lt;span style=&quot;color: rgb(0 , 0 , 0) ; font-family: &amp;#34;helvetica&amp;#34; ; font-size: 20px ; font-style: normal ; font-weight: 400 ; letter-spacing: normal ; text-indent: 0px ; text-transform: none ; word-spacing: 0px ; background-color: rgb(248 , 249 , 250) ; display: inline ; float: none&quot;&gt;Screen-UIratio &amp;lt; 0.507&lt;/span&gt;" style="text;whiteSpace=wrap;html=1;fontSize=20;fontColor=#333333;fillColor=#f5f5f5;strokeColor=#666666;align=center;verticalAlign=middle;" parent="1" vertex="1">
          <mxGeometry x="233" y="720" width="207" height="40" as="geometry" />
        </mxCell>
        <mxCell id="yVmeeTijZnfeH4OOuYgs-76" style="edgeStyle=none;rounded=1;orthogonalLoop=1;jettySize=auto;html=1;exitX=0.75;exitY=1;exitDx=0;exitDy=0;entryX=0.5;entryY=0;entryDx=0;entryDy=0;fontSize=20;fontColor=#000000;align=center;verticalAlign=middle;" parent="1" source="yVmeeTijZnfeH4OOuYgs-33" target="yVmeeTijZnfeH4OOuYgs-75" edge="1">
          <mxGeometry relative="1" as="geometry" />
        </mxCell>
        <mxCell id="yVmeeTijZnfeH4OOuYgs-78" value="No" style="edgeLabel;html=1;align=center;verticalAlign=middle;resizable=0;points=[];fontSize=20;fontColor=#000000;" parent="yVmeeTijZnfeH4OOuYgs-76" vertex="1" connectable="0">
          <mxGeometry x="0.2763" y="1" relative="1" as="geometry">
            <mxPoint x="-1.9200000000000002" y="-10.59" as="offset" />
          </mxGeometry>
        </mxCell>
        <mxCell id="yVmeeTijZnfeH4OOuYgs-77" style="edgeStyle=none;rounded=1;orthogonalLoop=1;jettySize=auto;html=1;exitX=0.25;exitY=1;exitDx=0;exitDy=0;entryX=0.5;entryY=0;entryDx=0;entryDy=0;fontSize=20;fontColor=#000000;align=center;verticalAlign=middle;" parent="1" source="yVmeeTijZnfeH4OOuYgs-33" target="yVmeeTijZnfeH4OOuYgs-10" edge="1">
          <mxGeometry relative="1" as="geometry" />
        </mxCell>
        <mxCell id="yVmeeTijZnfeH4OOuYgs-138" value="Yes" style="edgeLabel;html=1;align=center;verticalAlign=middle;resizable=0;points=[];fontSize=20;fontColor=#000000;" parent="yVmeeTijZnfeH4OOuYgs-77" vertex="1" connectable="0">
          <mxGeometry x="-0.1665" relative="1" as="geometry">
            <mxPoint y="1" as="offset" />
          </mxGeometry>
        </mxCell>
        <mxCell id="yVmeeTijZnfeH4OOuYgs-33" value="&lt;font style=&quot;font-size: 20px&quot;&gt;&lt;span style=&quot;color: rgb(0, 0, 0); font-family: helvetica; font-style: normal; font-weight: 400; letter-spacing: normal; text-indent: 0px; text-transform: none; word-spacing: 0px; background-color: rgb(248, 249, 250); display: inline; float: none;&quot;&gt;Text Length &amp;lt; 4.5&lt;/span&gt;&lt;/font&gt;" style="text;whiteSpace=wrap;html=1;fontSize=20;fontColor=#333333;shadow=1;fillColor=#f5f5f5;strokeColor=#666666;align=center;verticalAlign=middle;" parent="1" vertex="1">
          <mxGeometry x="50" y="720" width="170" height="40" as="geometry" />
        </mxCell>
        <mxCell id="yVmeeTijZnfeH4OOuYgs-40" style="edgeStyle=none;rounded=1;orthogonalLoop=1;jettySize=auto;html=1;exitX=0.75;exitY=1;exitDx=0;exitDy=0;entryX=0.5;entryY=0;entryDx=0;entryDy=0;fontSize=20;fontColor=#000000;align=center;verticalAlign=middle;" parent="1" source="yVmeeTijZnfeH4OOuYgs-36" target="yVmeeTijZnfeH4OOuYgs-39" edge="1">
          <mxGeometry relative="1" as="geometry" />
        </mxCell>
        <mxCell id="yVmeeTijZnfeH4OOuYgs-155" value="No" style="edgeLabel;html=1;align=center;verticalAlign=middle;resizable=0;points=[];fontSize=20;fontColor=#000000;" parent="yVmeeTijZnfeH4OOuYgs-40" vertex="1" connectable="0">
          <mxGeometry x="-0.3802" y="5" relative="1" as="geometry">
            <mxPoint x="13.94" y="19.51" as="offset" />
          </mxGeometry>
        </mxCell>
        <mxCell id="yVmeeTijZnfeH4OOuYgs-42" style="edgeStyle=none;rounded=1;orthogonalLoop=1;jettySize=auto;html=1;exitX=0.25;exitY=1;exitDx=0;exitDy=0;entryX=0.5;entryY=0;entryDx=0;entryDy=0;fontSize=20;fontColor=#000000;align=center;verticalAlign=middle;" parent="1" source="yVmeeTijZnfeH4OOuYgs-36" target="yVmeeTijZnfeH4OOuYgs-41" edge="1">
          <mxGeometry relative="1" as="geometry" />
        </mxCell>
        <mxCell id="yVmeeTijZnfeH4OOuYgs-154" value="Yes" style="edgeLabel;html=1;align=center;verticalAlign=middle;resizable=0;points=[];fontSize=20;fontColor=#000000;" parent="yVmeeTijZnfeH4OOuYgs-42" vertex="1" connectable="0">
          <mxGeometry x="0.3206" y="1" relative="1" as="geometry">
            <mxPoint x="7.5" y="-13.59" as="offset" />
          </mxGeometry>
        </mxCell>
        <mxCell id="yVmeeTijZnfeH4OOuYgs-36" value="&lt;font style=&quot;font-size: 20px&quot;&gt;&lt;span style=&quot;color: rgb(0, 0, 0); font-family: helvetica; font-style: normal; font-weight: 400; letter-spacing: normal; text-indent: 0px; text-transform: none; word-spacing: 0px; background-color: rgb(248, 249, 250); display: inline; float: none;&quot;&gt;Text Length &amp;lt; 22&lt;/span&gt;&lt;/font&gt;" style="text;whiteSpace=wrap;html=1;fontSize=20;fontColor=#333333;shadow=1;fillColor=#f5f5f5;strokeColor=#666666;align=center;verticalAlign=middle;" parent="1" vertex="1">
          <mxGeometry x="1300" y="600" width="160" height="40" as="geometry" />
        </mxCell>
        <mxCell id="yVmeeTijZnfeH4OOuYgs-92" style="edgeStyle=none;rounded=1;orthogonalLoop=1;jettySize=auto;html=1;exitX=0.75;exitY=1;exitDx=0;exitDy=0;entryX=0.5;entryY=0;entryDx=0;entryDy=0;fontSize=20;fontColor=#000000;align=center;verticalAlign=middle;" parent="1" source="yVmeeTijZnfeH4OOuYgs-39" target="yVmeeTijZnfeH4OOuYgs-91" edge="1">
          <mxGeometry relative="1" as="geometry" />
        </mxCell>
        <mxCell id="yVmeeTijZnfeH4OOuYgs-93" value="No" style="edgeLabel;html=1;align=center;verticalAlign=middle;resizable=0;points=[];fontSize=20;fontColor=#000000;" parent="yVmeeTijZnfeH4OOuYgs-92" vertex="1" connectable="0">
          <mxGeometry x="-0.3727" y="1" relative="1" as="geometry">
            <mxPoint x="-1" y="14.29" as="offset" />
          </mxGeometry>
        </mxCell>
        <mxCell id="yVmeeTijZnfeH4OOuYgs-96" style="edgeStyle=none;rounded=1;orthogonalLoop=1;jettySize=auto;html=1;exitX=0.25;exitY=1;exitDx=0;exitDy=0;entryX=0.5;entryY=0;entryDx=0;entryDy=0;fontSize=20;fontColor=#000000;align=center;verticalAlign=middle;" parent="1" source="yVmeeTijZnfeH4OOuYgs-39" target="yVmeeTijZnfeH4OOuYgs-94" edge="1">
          <mxGeometry relative="1" as="geometry" />
        </mxCell>
        <mxCell id="yVmeeTijZnfeH4OOuYgs-97" value="Yes" style="edgeLabel;html=1;align=center;verticalAlign=middle;resizable=0;points=[];fontSize=20;fontColor=#000000;" parent="yVmeeTijZnfeH4OOuYgs-96" vertex="1" connectable="0">
          <mxGeometry x="-0.3833" y="-5" relative="1" as="geometry">
            <mxPoint x="5" y="15.71" as="offset" />
          </mxGeometry>
        </mxCell>
        <mxCell id="yVmeeTijZnfeH4OOuYgs-39" value="&lt;span style=&quot;color: rgb(0 , 0 , 0) ; font-family: &amp;#34;helvetica&amp;#34; ; font-size: 20px ; font-style: normal ; font-weight: 400 ; letter-spacing: normal ; text-indent: 0px ; text-transform: none ; word-spacing: 0px ; background-color: rgb(248 , 249 , 250) ; display: inline ; float: none&quot;&gt;Screen-UIratio&amp;nbsp;&amp;lt; 0.114&lt;/span&gt;" style="text;whiteSpace=wrap;html=1;fontSize=20;fontColor=#333333;fillColor=#f5f5f5;strokeColor=#666666;align=center;verticalAlign=middle;" parent="1" vertex="1">
          <mxGeometry x="1418" y="720" width="220" height="40" as="geometry" />
        </mxCell>
        <mxCell id="yVmeeTijZnfeH4OOuYgs-106" style="edgeStyle=none;rounded=1;orthogonalLoop=1;jettySize=auto;html=1;entryX=0.5;entryY=0;entryDx=0;entryDy=0;fontSize=20;fontColor=#000000;align=center;exitX=0.25;exitY=1;exitDx=0;exitDy=0;verticalAlign=middle;" parent="1" source="yVmeeTijZnfeH4OOuYgs-41" target="yVmeeTijZnfeH4OOuYgs-104" edge="1">
          <mxGeometry relative="1" as="geometry" />
        </mxCell>
        <mxCell id="yVmeeTijZnfeH4OOuYgs-107" value="Yes" style="edgeLabel;html=1;align=center;verticalAlign=middle;resizable=0;points=[];fontSize=20;fontColor=#000000;" parent="yVmeeTijZnfeH4OOuYgs-106" vertex="1" connectable="0">
          <mxGeometry x="0.4026" y="-2" relative="1" as="geometry">
            <mxPoint x="2" y="-15.71" as="offset" />
          </mxGeometry>
        </mxCell>
        <mxCell id="yVmeeTijZnfeH4OOuYgs-109" style="edgeStyle=none;rounded=1;orthogonalLoop=1;jettySize=auto;html=1;entryX=0.5;entryY=0;entryDx=0;entryDy=0;fontSize=20;fontColor=#000000;align=center;exitX=0.75;exitY=1;exitDx=0;exitDy=0;verticalAlign=middle;" parent="1" source="yVmeeTijZnfeH4OOuYgs-41" target="yVmeeTijZnfeH4OOuYgs-108" edge="1">
          <mxGeometry relative="1" as="geometry" />
        </mxCell>
        <mxCell id="yVmeeTijZnfeH4OOuYgs-146" value="No" style="edgeLabel;html=1;align=center;verticalAlign=middle;resizable=0;points=[];fontSize=20;fontColor=#000000;" parent="yVmeeTijZnfeH4OOuYgs-109" vertex="1" connectable="0">
          <mxGeometry x="0.3892" y="1" relative="1" as="geometry">
            <mxPoint x="-9.91" y="-15.870000000000001" as="offset" />
          </mxGeometry>
        </mxCell>
        <mxCell id="yVmeeTijZnfeH4OOuYgs-41" value="&lt;span style=&quot;color: rgb(0 , 0 , 0) ; font-family: &amp;#34;helvetica&amp;#34; ; font-size: 20px ; font-style: normal ; font-weight: 400 ; letter-spacing: normal ; text-indent: 0px ; text-transform: none ; word-spacing: 0px ; background-color: rgb(248 , 249 , 250) ; display: inline ; float: none&quot;&gt;Screen-UIratio &amp;lt; 0.0132&lt;/span&gt;" style="text;whiteSpace=wrap;html=1;fontSize=20;fontColor=#333333;fillColor=#f5f5f5;strokeColor=#666666;align=center;verticalAlign=middle;" parent="1" vertex="1">
          <mxGeometry x="1188" y="720" width="220" height="40" as="geometry" />
        </mxCell>
        <mxCell id="yVmeeTijZnfeH4OOuYgs-47" style="edgeStyle=none;rounded=1;orthogonalLoop=1;jettySize=auto;html=1;exitX=0.25;exitY=1;exitDx=0;exitDy=0;entryX=0.5;entryY=0;entryDx=0;entryDy=0;fontSize=20;fontColor=#000000;align=center;verticalAlign=middle;" parent="1" source="yVmeeTijZnfeH4OOuYgs-43" target="yVmeeTijZnfeH4OOuYgs-46" edge="1">
          <mxGeometry relative="1" as="geometry" />
        </mxCell>
        <mxCell id="yVmeeTijZnfeH4OOuYgs-142" value="Yes" style="edgeLabel;html=1;align=center;verticalAlign=middle;resizable=0;points=[];fontSize=20;fontColor=#000000;" parent="yVmeeTijZnfeH4OOuYgs-47" vertex="1" connectable="0">
          <mxGeometry x="0.3419" y="1" relative="1" as="geometry">
            <mxPoint x="21.28" y="-24.41" as="offset" />
          </mxGeometry>
        </mxCell>
        <mxCell id="yVmeeTijZnfeH4OOuYgs-50" style="edgeStyle=none;rounded=1;orthogonalLoop=1;jettySize=auto;html=1;exitX=0.75;exitY=1;exitDx=0;exitDy=0;entryX=0.5;entryY=0;entryDx=0;entryDy=0;fontSize=20;fontColor=#000000;align=center;verticalAlign=middle;" parent="1" source="yVmeeTijZnfeH4OOuYgs-43" target="yVmeeTijZnfeH4OOuYgs-48" edge="1">
          <mxGeometry relative="1" as="geometry" />
        </mxCell>
        <mxCell id="yVmeeTijZnfeH4OOuYgs-143" value="No" style="edgeLabel;html=1;align=center;verticalAlign=middle;resizable=0;points=[];fontSize=20;fontColor=#000000;" parent="yVmeeTijZnfeH4OOuYgs-50" vertex="1" connectable="0">
          <mxGeometry x="0.2299" relative="1" as="geometry">
            <mxPoint x="-2.21" y="-19.14" as="offset" />
          </mxGeometry>
        </mxCell>
        <mxCell id="yVmeeTijZnfeH4OOuYgs-43" value="&lt;span style=&quot;color: rgb(0, 0, 0); font-family: helvetica; font-size: 20px; font-style: normal; font-weight: 400; letter-spacing: normal; text-indent: 0px; text-transform: none; word-spacing: 0px; background-color: rgb(248, 249, 250); display: inline; float: none;&quot;&gt;Confirmation Button&lt;/span&gt;" style="text;whiteSpace=wrap;html=1;fontSize=20;fontColor=#333333;fillColor=#f5f5f5;strokeColor=#666666;align=center;verticalAlign=middle;" parent="1" vertex="1">
          <mxGeometry x="650" y="480" width="220" height="40" as="geometry" />
        </mxCell>
        <mxCell id="yVmeeTijZnfeH4OOuYgs-99" style="edgeStyle=none;rounded=1;orthogonalLoop=1;jettySize=auto;html=1;entryX=0.5;entryY=0;entryDx=0;entryDy=0;fontSize=20;fontColor=#000000;align=center;verticalAlign=middle;" parent="1" source="yVmeeTijZnfeH4OOuYgs-46" target="yVmeeTijZnfeH4OOuYgs-98" edge="1">
          <mxGeometry relative="1" as="geometry" />
        </mxCell>
        <mxCell id="yVmeeTijZnfeH4OOuYgs-100" value="No" style="edgeLabel;html=1;align=center;verticalAlign=middle;resizable=0;points=[];fontSize=20;fontColor=#000000;" parent="yVmeeTijZnfeH4OOuYgs-99" vertex="1" connectable="0">
          <mxGeometry x="-0.3166" relative="1" as="geometry">
            <mxPoint y="12.94" as="offset" />
          </mxGeometry>
        </mxCell>
        <mxCell id="yVmeeTijZnfeH4OOuYgs-102" style="edgeStyle=none;rounded=1;orthogonalLoop=1;jettySize=auto;html=1;entryX=0.5;entryY=0;entryDx=0;entryDy=0;fontSize=20;fontColor=#000000;align=center;exitX=0.25;exitY=1;exitDx=0;exitDy=0;verticalAlign=middle;" parent="1" source="yVmeeTijZnfeH4OOuYgs-46" target="yVmeeTijZnfeH4OOuYgs-101" edge="1">
          <mxGeometry relative="1" as="geometry" />
        </mxCell>
        <mxCell id="yVmeeTijZnfeH4OOuYgs-103" value="Yes" style="edgeLabel;html=1;align=center;verticalAlign=middle;resizable=0;points=[];fontSize=20;fontColor=#000000;" parent="yVmeeTijZnfeH4OOuYgs-102" vertex="1" connectable="0">
          <mxGeometry x="0.2876" y="3" relative="1" as="geometry">
            <mxPoint x="3.56" y="-12.79" as="offset" />
          </mxGeometry>
        </mxCell>
        <mxCell id="yVmeeTijZnfeH4OOuYgs-46" value="&lt;font style=&quot;font-size: 20px&quot;&gt;&lt;span style=&quot;color: rgb(0, 0, 0); font-family: helvetica; font-style: normal; font-weight: 400; letter-spacing: normal; text-indent: 0px; text-transform: none; word-spacing: 0px; background-color: rgb(248, 249, 250); display: inline; float: none;&quot;&gt;Text Length &amp;lt; 16.5&lt;/span&gt;&lt;/font&gt;" style="text;whiteSpace=wrap;html=1;fontSize=20;fontColor=#333333;shadow=1;fillColor=#f5f5f5;strokeColor=#666666;align=center;verticalAlign=middle;" parent="1" vertex="1">
          <mxGeometry x="540" y="600" width="190" height="40" as="geometry" />
        </mxCell>
        <mxCell id="yVmeeTijZnfeH4OOuYgs-51" style="edgeStyle=none;rounded=1;orthogonalLoop=1;jettySize=auto;html=1;exitX=0.25;exitY=1;exitDx=0;exitDy=0;entryX=0.5;entryY=0;entryDx=0;entryDy=0;fontSize=20;fontColor=#000000;align=center;verticalAlign=middle;" parent="1" source="yVmeeTijZnfeH4OOuYgs-48" target="yVmeeTijZnfeH4OOuYgs-49" edge="1">
          <mxGeometry relative="1" as="geometry" />
        </mxCell>
        <mxCell id="yVmeeTijZnfeH4OOuYgs-119" value="Yes" style="edgeLabel;html=1;align=center;verticalAlign=middle;resizable=0;points=[];fontSize=20;fontColor=#000000;" parent="yVmeeTijZnfeH4OOuYgs-51" vertex="1" connectable="0">
          <mxGeometry x="-0.1603" y="-2" relative="1" as="geometry">
            <mxPoint x="0.56" y="5.96" as="offset" />
          </mxGeometry>
        </mxCell>
        <mxCell id="yVmeeTijZnfeH4OOuYgs-53" style="edgeStyle=none;rounded=1;orthogonalLoop=1;jettySize=auto;html=1;exitX=0.75;exitY=1;exitDx=0;exitDy=0;entryX=0.5;entryY=0;entryDx=0;entryDy=0;fontSize=20;fontColor=#000000;align=center;verticalAlign=middle;" parent="1" source="yVmeeTijZnfeH4OOuYgs-48" target="yVmeeTijZnfeH4OOuYgs-52" edge="1">
          <mxGeometry relative="1" as="geometry" />
        </mxCell>
        <mxCell id="yVmeeTijZnfeH4OOuYgs-144" value="No" style="edgeLabel;html=1;align=center;verticalAlign=middle;resizable=0;points=[];fontSize=20;fontColor=#000000;" parent="yVmeeTijZnfeH4OOuYgs-53" vertex="1" connectable="0">
          <mxGeometry x="0.1764" y="-4" relative="1" as="geometry">
            <mxPoint x="-4.3" y="-32.010000000000005" as="offset" />
          </mxGeometry>
        </mxCell>
        <mxCell id="yVmeeTijZnfeH4OOuYgs-48" value="&lt;span style=&quot;color: rgb(0, 0, 0); font-family: helvetica; font-size: 20px; font-style: normal; font-weight: 400; letter-spacing: normal; text-indent: 0px; text-transform: none; word-spacing: 0px; background-color: rgb(248, 249, 250); display: inline; float: none;&quot;&gt;Multi-page Slider&lt;/span&gt;" style="text;whiteSpace=wrap;html=1;fontSize=20;fontColor=#333333;fillColor=#f5f5f5;strokeColor=#666666;align=center;verticalAlign=middle;" parent="1" vertex="1">
          <mxGeometry x="745" y="600" width="170" height="40" as="geometry" />
        </mxCell>
        <mxCell id="yVmeeTijZnfeH4OOuYgs-117" style="edgeStyle=none;rounded=1;orthogonalLoop=1;jettySize=auto;html=1;entryX=0.5;entryY=0;entryDx=0;entryDy=0;fontSize=20;fontColor=#000000;align=center;verticalAlign=middle;" parent="1" source="yVmeeTijZnfeH4OOuYgs-49" target="yVmeeTijZnfeH4OOuYgs-116" edge="1">
          <mxGeometry relative="1" as="geometry" />
        </mxCell>
        <mxCell id="yVmeeTijZnfeH4OOuYgs-118" value="Yes" style="edgeLabel;html=1;align=center;verticalAlign=middle;resizable=0;points=[];fontSize=20;fontColor=#000000;" parent="yVmeeTijZnfeH4OOuYgs-117" vertex="1" connectable="0">
          <mxGeometry x="0.216" y="1" relative="1" as="geometry">
            <mxPoint x="7.91" y="-9.45" as="offset" />
          </mxGeometry>
        </mxCell>
        <mxCell id="yVmeeTijZnfeH4OOuYgs-121" style="edgeStyle=none;rounded=1;orthogonalLoop=1;jettySize=auto;html=1;entryX=0.5;entryY=0;entryDx=0;entryDy=0;fontSize=20;fontColor=#000000;align=center;verticalAlign=middle;" parent="1" source="yVmeeTijZnfeH4OOuYgs-49" target="yVmeeTijZnfeH4OOuYgs-120" edge="1">
          <mxGeometry relative="1" as="geometry" />
        </mxCell>
        <mxCell id="yVmeeTijZnfeH4OOuYgs-122" value="No" style="edgeLabel;html=1;align=center;verticalAlign=middle;resizable=0;points=[];fontSize=20;fontColor=#000000;" parent="yVmeeTijZnfeH4OOuYgs-121" vertex="1" connectable="0">
          <mxGeometry x="0.3367" y="-3" relative="1" as="geometry">
            <mxPoint x="4.24" y="-11.11" as="offset" />
          </mxGeometry>
        </mxCell>
        <mxCell id="yVmeeTijZnfeH4OOuYgs-49" value="&lt;font style=&quot;font-size: 20px&quot;&gt;&lt;span style=&quot;color: rgb(0, 0, 0); font-family: helvetica; font-style: normal; font-weight: 400; letter-spacing: normal; text-indent: 0px; text-transform: none; word-spacing: 0px; background-color: rgb(248, 249, 250); display: inline; float: none;&quot;&gt;Text Length &amp;lt; 12.5&lt;/span&gt;&lt;/font&gt;" style="text;whiteSpace=wrap;html=1;fontSize=20;fontColor=#333333;shadow=1;fillColor=#f5f5f5;strokeColor=#666666;align=center;verticalAlign=middle;" parent="1" vertex="1">
          <mxGeometry x="690" y="720.0000000000001" width="190" height="40" as="geometry" />
        </mxCell>
        <mxCell id="yVmeeTijZnfeH4OOuYgs-124" style="edgeStyle=none;rounded=1;orthogonalLoop=1;jettySize=auto;html=1;exitX=0.75;exitY=1;exitDx=0;exitDy=0;entryX=0.5;entryY=0;entryDx=0;entryDy=0;fontSize=20;fontColor=#000000;align=center;verticalAlign=middle;" parent="1" source="yVmeeTijZnfeH4OOuYgs-52" target="yVmeeTijZnfeH4OOuYgs-123" edge="1">
          <mxGeometry relative="1" as="geometry" />
        </mxCell>
        <mxCell id="yVmeeTijZnfeH4OOuYgs-125" value="No" style="edgeLabel;html=1;align=center;verticalAlign=middle;resizable=0;points=[];fontSize=20;fontColor=#000000;" parent="yVmeeTijZnfeH4OOuYgs-124" vertex="1" connectable="0">
          <mxGeometry x="0.28" y="-4" relative="1" as="geometry">
            <mxPoint x="-16.45" y="-19.18" as="offset" />
          </mxGeometry>
        </mxCell>
        <mxCell id="yVmeeTijZnfeH4OOuYgs-126" style="edgeStyle=none;rounded=1;orthogonalLoop=1;jettySize=auto;html=1;exitX=0.25;exitY=1;exitDx=0;exitDy=0;entryX=0.5;entryY=0;entryDx=0;entryDy=0;fontSize=20;fontColor=#000000;align=center;verticalAlign=middle;" parent="1" source="yVmeeTijZnfeH4OOuYgs-52" target="yVmeeTijZnfeH4OOuYgs-54" edge="1">
          <mxGeometry relative="1" as="geometry" />
        </mxCell>
        <mxCell id="yVmeeTijZnfeH4OOuYgs-127" value="Yes" style="edgeLabel;html=1;align=center;verticalAlign=middle;resizable=0;points=[];fontSize=20;fontColor=#000000;" parent="yVmeeTijZnfeH4OOuYgs-126" vertex="1" connectable="0">
          <mxGeometry x="0.4764" relative="1" as="geometry">
            <mxPoint x="-0.379999999999999" y="-19.98" as="offset" />
          </mxGeometry>
        </mxCell>
        <mxCell id="yVmeeTijZnfeH4OOuYgs-52" value="&lt;span style=&quot;color: rgb(0 , 0 , 0) ; font-family: &amp;#34;helvetica&amp;#34; ; font-size: 20px ; font-style: normal ; font-weight: 400 ; letter-spacing: normal ; text-indent: 0px ; text-transform: none ; word-spacing: 0px ; background-color: rgb(248 , 249 , 250) ; display: inline ; float: none&quot;&gt;Screen-UIratio &amp;lt; 0.389&lt;/span&gt;" style="text;whiteSpace=wrap;html=1;fontSize=20;fontColor=#333333;fillColor=#f5f5f5;strokeColor=#666666;align=center;verticalAlign=middle;" parent="1" vertex="1">
          <mxGeometry x="822" y="760" width="218" height="40" as="geometry" />
        </mxCell>
        <mxCell id="yVmeeTijZnfeH4OOuYgs-129" style="edgeStyle=none;rounded=1;orthogonalLoop=1;jettySize=auto;html=1;exitX=0.25;exitY=1;exitDx=0;exitDy=0;entryX=0.5;entryY=0;entryDx=0;entryDy=0;fontSize=20;fontColor=#000000;align=center;verticalAlign=middle;" parent="1" source="yVmeeTijZnfeH4OOuYgs-54" target="yVmeeTijZnfeH4OOuYgs-128" edge="1">
          <mxGeometry relative="1" as="geometry" />
        </mxCell>
        <mxCell id="yVmeeTijZnfeH4OOuYgs-130" value="Yes" style="edgeLabel;html=1;align=center;verticalAlign=middle;resizable=0;points=[];fontSize=20;fontColor=#000000;" parent="yVmeeTijZnfeH4OOuYgs-129" vertex="1" connectable="0">
          <mxGeometry x="0.1895" y="1" relative="1" as="geometry">
            <mxPoint x="-3.06" y="-7.15" as="offset" />
          </mxGeometry>
        </mxCell>
        <mxCell id="yVmeeTijZnfeH4OOuYgs-132" style="edgeStyle=none;rounded=1;orthogonalLoop=1;jettySize=auto;html=1;entryX=0.5;entryY=0;entryDx=0;entryDy=0;fontSize=20;fontColor=#000000;align=center;exitX=0.75;exitY=1;exitDx=0;exitDy=0;verticalAlign=middle;" parent="1" source="yVmeeTijZnfeH4OOuYgs-54" target="yVmeeTijZnfeH4OOuYgs-131" edge="1">
          <mxGeometry relative="1" as="geometry" />
        </mxCell>
        <mxCell id="yVmeeTijZnfeH4OOuYgs-133" value="No" style="edgeLabel;html=1;align=center;verticalAlign=middle;resizable=0;points=[];fontSize=20;fontColor=#000000;" parent="yVmeeTijZnfeH4OOuYgs-132" vertex="1" connectable="0">
          <mxGeometry x="0.3022" y="1" relative="1" as="geometry">
            <mxPoint x="-3.3" y="-12.73" as="offset" />
          </mxGeometry>
        </mxCell>
        <mxCell id="yVmeeTijZnfeH4OOuYgs-54" value="&lt;span style=&quot;color: rgb(0, 0, 0); font-family: helvetica; font-size: 20px; font-style: normal; font-weight: 400; letter-spacing: normal; text-indent: 0px; text-transform: none; word-spacing: 0px; background-color: rgb(248, 249, 250); display: inline; float: none;&quot;&gt;22&lt;/span&gt;&lt;span style=&quot;color: rgb(0, 0, 0); font-family: helvetica; font-size: 20px; font-style: normal; font-weight: 400; letter-spacing: normal; text-indent: 0px; text-transform: none; word-spacing: 0px; background-color: rgb(248, 249, 250);&quot;&gt; &lt;/span&gt;&lt;span style=&quot;color: rgb(0, 0, 0); font-family: helvetica; font-size: 20px; font-style: normal; font-weight: 400; letter-spacing: normal; text-indent: 0px; text-transform: none; word-spacing: 0px; background-color: rgb(248, 249, 250); display: inline; float: none;&quot;&gt;Top Word: view&lt;/span&gt;" style="text;whiteSpace=wrap;html=1;fontSize=20;fontColor=#333333;fillColor=#f5f5f5;strokeColor=#666666;align=center;verticalAlign=middle;" parent="1" vertex="1">
          <mxGeometry x="770" y="840.04" width="200" height="40" as="geometry" />
        </mxCell>
        <mxCell id="yVmeeTijZnfeH4OOuYgs-55" value="&lt;span style=&quot;color: rgb(0, 0, 0); font-family: helvetica; font-size: 20px; font-style: normal; font-weight: 400; letter-spacing: normal; text-indent: 0px; text-transform: none; word-spacing: 0px; background-color: rgb(248, 249, 250); display: inline; float: none;&quot;&gt;+0.031&lt;br&gt;&lt;/span&gt;" style="text;whiteSpace=wrap;html=1;fontSize=20;fontColor=#333333;fillColor=#f5f5f5;strokeColor=#666666;align=center;verticalAlign=middle;" parent="1" vertex="1">
          <mxGeometry x="433" y="600" width="100" height="40" as="geometry" />
        </mxCell>
        <mxCell id="yVmeeTijZnfeH4OOuYgs-59" value="&lt;span style=&quot;color: rgb(0, 0, 0); font-family: helvetica; font-size: 20px; font-style: normal; font-weight: 400; letter-spacing: normal; text-indent: 0px; text-transform: none; word-spacing: 0px; background-color: rgb(248, 249, 250); display: inline; float: none;&quot;&gt;+0.257&lt;br&gt;&lt;/span&gt;" style="text;whiteSpace=wrap;html=1;fontSize=20;fontColor=#333333;fillColor=#f5f5f5;strokeColor=#666666;align=center;verticalAlign=middle;" parent="1" vertex="1">
          <mxGeometry x="335" y="600" width="90" height="40" as="geometry" />
        </mxCell>
        <mxCell id="yVmeeTijZnfeH4OOuYgs-62" value="&lt;span style=&quot;color: rgb(0, 0, 0); font-family: helvetica; font-size: 20px; font-style: normal; font-weight: 400; letter-spacing: normal; text-indent: 0px; text-transform: none; word-spacing: 0px; background-color: rgb(248, 249, 250); display: inline; float: none;&quot;&gt;-0.129&lt;br&gt;&lt;/span&gt;" style="text;whiteSpace=wrap;html=1;fontSize=20;fontColor=#333333;fillColor=#f5f5f5;strokeColor=#666666;align=center;verticalAlign=middle;" parent="1" vertex="1">
          <mxGeometry x="-60" y="720" width="90" height="40" as="geometry" />
        </mxCell>
        <mxCell id="yVmeeTijZnfeH4OOuYgs-65" value="&lt;span style=&quot;color: rgb(0, 0, 0); font-family: helvetica; font-size: 20px; font-style: normal; font-weight: 400; letter-spacing: normal; text-indent: 0px; text-transform: none; word-spacing: 0px; background-color: rgb(248, 249, 250); display: inline; float: none;&quot;&gt;+0.245&lt;br&gt;&lt;/span&gt;" style="text;whiteSpace=wrap;html=1;fontSize=20;fontColor=#333333;fillColor=#f5f5f5;strokeColor=#666666;align=center;verticalAlign=middle;" parent="1" vertex="1">
          <mxGeometry x="-160" y="720" width="90" height="40" as="geometry" />
        </mxCell>
        <mxCell id="yVmeeTijZnfeH4OOuYgs-68" value="&lt;span style=&quot;color: rgb(0, 0, 0); font-family: helvetica; font-size: 20px; font-style: normal; font-weight: 400; letter-spacing: normal; text-indent: 0px; text-transform: none; word-spacing: 0px; background-color: rgb(248, 249, 250); display: inline; float: none;&quot;&gt;-0.129&lt;br&gt;&lt;/span&gt;" style="text;whiteSpace=wrap;html=1;fontSize=20;fontColor=#333333;fillColor=#f5f5f5;strokeColor=#666666;align=center;verticalAlign=middle;" parent="1" vertex="1">
          <mxGeometry x="338" y="839.96" width="90" height="40" as="geometry" />
        </mxCell>
        <mxCell id="yVmeeTijZnfeH4OOuYgs-71" value="&lt;span style=&quot;color: rgb(0, 0, 0); font-family: helvetica; font-size: 20px; font-style: normal; font-weight: 400; letter-spacing: normal; text-indent: 0px; text-transform: none; word-spacing: 0px; background-color: rgb(248, 249, 250); display: inline; float: none;&quot;&gt;0.124&lt;br&gt;&lt;/span&gt;" style="text;whiteSpace=wrap;html=1;fontSize=20;fontColor=#333333;fillColor=#f5f5f5;strokeColor=#666666;align=center;verticalAlign=middle;" parent="1" vertex="1">
          <mxGeometry x="237" y="840" width="90" height="40" as="geometry" />
        </mxCell>
        <mxCell id="yVmeeTijZnfeH4OOuYgs-75" value="&lt;span style=&quot;color: rgb(0 , 0 , 0) ; font-family: &amp;quot;helvetica&amp;quot; ; font-size: 20px ; font-style: normal ; font-weight: 400 ; letter-spacing: normal ; text-indent: 0px ; text-transform: none ; word-spacing: 0px ; background-color: rgb(248 , 249 , 250) ; display: inline ; float: none&quot;&gt;-0.181&lt;br&gt;&lt;/span&gt;" style="text;whiteSpace=wrap;html=1;fontSize=20;fontColor=#333333;fillColor=#f5f5f5;strokeColor=#666666;align=center;verticalAlign=middle;" parent="1" vertex="1">
          <mxGeometry x="132" y="840" width="90" height="40" as="geometry" />
        </mxCell>
        <mxCell id="yVmeeTijZnfeH4OOuYgs-79" value="&lt;span style=&quot;color: rgb(0, 0, 0); font-family: helvetica; font-size: 20px; font-style: normal; font-weight: 400; letter-spacing: normal; text-indent: 0px; text-transform: none; word-spacing: 0px; background-color: rgb(248, 249, 250); display: inline; float: none;&quot;&gt;0.124&lt;br&gt;&lt;/span&gt;" style="text;whiteSpace=wrap;html=1;fontSize=20;fontColor=#333333;fillColor=#f5f5f5;strokeColor=#666666;align=center;verticalAlign=middle;" parent="1" vertex="1">
          <mxGeometry x="-76" y="960" width="90" height="40" as="geometry" />
        </mxCell>
        <mxCell id="yVmeeTijZnfeH4OOuYgs-82" value="&lt;span style=&quot;color: rgb(0 , 0 , 0) ; font-family: &amp;quot;helvetica&amp;quot; ; font-size: 20px ; font-style: normal ; font-weight: 400 ; letter-spacing: normal ; text-indent: 0px ; text-transform: none ; word-spacing: 0px ; background-color: rgb(248 , 249 , 250) ; display: inline ; float: none&quot;&gt;-0.163&lt;br&gt;&lt;/span&gt;" style="text;whiteSpace=wrap;html=1;fontSize=20;fontColor=#333333;fillColor=#f5f5f5;strokeColor=#666666;align=center;verticalAlign=middle;" parent="1" vertex="1">
          <mxGeometry x="24" y="960" width="90" height="40" as="geometry" />
        </mxCell>
        <mxCell id="yVmeeTijZnfeH4OOuYgs-85" value="&lt;span style=&quot;color: rgb(0 , 0 , 0) ; font-family: &amp;quot;helvetica&amp;quot; ; font-size: 20px ; font-style: normal ; font-weight: 400 ; letter-spacing: normal ; text-indent: 0px ; text-transform: none ; word-spacing: 0px ; background-color: rgb(248 , 249 , 250) ; display: inline ; float: none&quot;&gt;-0.0.36&lt;br&gt;&lt;/span&gt;" style="text;whiteSpace=wrap;html=1;fontSize=20;fontColor=#333333;fillColor=#f5f5f5;strokeColor=#666666;align=center;verticalAlign=middle;" parent="1" vertex="1">
          <mxGeometry x="1080" y="719.9999999999999" width="90" height="40" as="geometry" />
        </mxCell>
        <mxCell id="yVmeeTijZnfeH4OOuYgs-88" value="&lt;span style=&quot;color: rgb(0 , 0 , 0) ; font-family: &amp;quot;helvetica&amp;quot; ; font-size: 20px ; font-style: normal ; font-weight: 400 ; letter-spacing: normal ; text-indent: 0px ; text-transform: none ; word-spacing: 0px ; background-color: rgb(248 , 249 , 250) ; display: inline ; float: none&quot;&gt;0.257&lt;br&gt;&lt;/span&gt;" style="text;whiteSpace=wrap;html=1;fontSize=20;fontColor=#333333;fillColor=#f5f5f5;strokeColor=#666666;align=center;verticalAlign=middle;" parent="1" vertex="1">
          <mxGeometry x="978" y="720" width="90" height="40" as="geometry" />
        </mxCell>
        <mxCell id="yVmeeTijZnfeH4OOuYgs-91" value="&lt;span style=&quot;color: rgb(0 , 0 , 0) ; font-family: &amp;quot;helvetica&amp;quot; ; font-size: 20px ; font-style: normal ; font-weight: 400 ; letter-spacing: normal ; text-indent: 0px ; text-transform: none ; word-spacing: 0px ; background-color: rgb(248 , 249 , 250) ; display: inline ; float: none&quot;&gt;0.129&lt;br&gt;&lt;/span&gt;" style="text;whiteSpace=wrap;html=1;fontSize=20;fontColor=#333333;fillColor=#f5f5f5;strokeColor=#666666;align=center;verticalAlign=middle;" parent="1" vertex="1">
          <mxGeometry x="1538" y="840" width="90" height="40" as="geometry" />
        </mxCell>
        <mxCell id="yVmeeTijZnfeH4OOuYgs-94" value="&lt;span style=&quot;color: rgb(0 , 0 , 0) ; font-family: &amp;quot;helvetica&amp;quot; ; font-size: 20px ; font-style: normal ; font-weight: 400 ; letter-spacing: normal ; text-indent: 0px ; text-transform: none ; word-spacing: 0px ; background-color: rgb(248 , 249 , 250) ; display: inline ; float: none&quot;&gt;-0.129&lt;br&gt;&lt;/span&gt;" style="text;whiteSpace=wrap;html=1;fontSize=20;fontColor=#333333;fillColor=#f5f5f5;strokeColor=#666666;align=center;verticalAlign=middle;" parent="1" vertex="1">
          <mxGeometry x="1428" y="839.96" width="90" height="40" as="geometry" />
        </mxCell>
        <mxCell id="yVmeeTijZnfeH4OOuYgs-98" value="&lt;span style=&quot;color: rgb(0 , 0 , 0) ; font-family: &amp;quot;helvetica&amp;quot; ; font-size: 20px ; font-style: normal ; font-weight: 400 ; letter-spacing: normal ; text-indent: 0px ; text-transform: none ; word-spacing: 0px ; background-color: rgb(248 , 249 , 250) ; display: inline ; float: none&quot;&gt;-7.663&lt;br&gt;&lt;/span&gt;" style="text;whiteSpace=wrap;html=1;fontSize=20;fontColor=#333333;fillColor=#f5f5f5;strokeColor=#666666;align=center;verticalAlign=middle;" parent="1" vertex="1">
          <mxGeometry x="590" y="720.0000000000001" width="90" height="40" as="geometry" />
        </mxCell>
        <mxCell id="yVmeeTijZnfeH4OOuYgs-101" value="&lt;span style=&quot;color: rgb(0 , 0 , 0) ; font-family: &amp;quot;helvetica&amp;quot; ; font-size: 20px ; font-style: normal ; font-weight: 400 ; letter-spacing: normal ; text-indent: 0px ; text-transform: none ; word-spacing: 0px ; background-color: rgb(248 , 249 , 250) ; display: inline ; float: none&quot;&gt;0.129&lt;br&gt;&lt;/span&gt;" style="text;whiteSpace=wrap;html=1;fontSize=20;fontColor=#333333;fillColor=#f5f5f5;strokeColor=#666666;align=center;verticalAlign=middle;" parent="1" vertex="1">
          <mxGeometry x="490" y="720" width="90" height="40" as="geometry" />
        </mxCell>
        <mxCell id="yVmeeTijZnfeH4OOuYgs-104" value="&lt;span style=&quot;color: rgb(0 , 0 , 0) ; font-family: &amp;quot;helvetica&amp;quot; ; font-size: 20px ; font-style: normal ; font-weight: 400 ; letter-spacing: normal ; text-indent: 0px ; text-transform: none ; word-spacing: 0px ; background-color: rgb(248 , 249 , 250) ; display: inline ; float: none&quot;&gt;-7.663&lt;br&gt;&lt;/span&gt;" style="text;whiteSpace=wrap;html=1;fontSize=20;fontColor=#333333;fillColor=#f5f5f5;strokeColor=#666666;align=center;verticalAlign=middle;" parent="1" vertex="1">
          <mxGeometry x="1198" y="839.9599999999999" width="90" height="40" as="geometry" />
        </mxCell>
        <mxCell id="yVmeeTijZnfeH4OOuYgs-111" style="edgeStyle=none;rounded=1;orthogonalLoop=1;jettySize=auto;html=1;entryX=0.5;entryY=0;entryDx=0;entryDy=0;fontSize=20;fontColor=#000000;align=center;exitX=0.25;exitY=1;exitDx=0;exitDy=0;verticalAlign=middle;" parent="1" source="yVmeeTijZnfeH4OOuYgs-108" target="yVmeeTijZnfeH4OOuYgs-110" edge="1">
          <mxGeometry relative="1" as="geometry" />
        </mxCell>
        <mxCell id="yVmeeTijZnfeH4OOuYgs-112" value="Yes" style="edgeLabel;html=1;align=center;verticalAlign=middle;resizable=0;points=[];fontSize=20;fontColor=#000000;" parent="yVmeeTijZnfeH4OOuYgs-111" vertex="1" connectable="0">
          <mxGeometry x="0.4268" y="-4" relative="1" as="geometry">
            <mxPoint x="2.700000000000001" y="-18.29" as="offset" />
          </mxGeometry>
        </mxCell>
        <mxCell id="yVmeeTijZnfeH4OOuYgs-114" style="edgeStyle=none;rounded=1;orthogonalLoop=1;jettySize=auto;html=1;exitX=0.75;exitY=1;exitDx=0;exitDy=0;entryX=0.5;entryY=0;entryDx=0;entryDy=0;fontSize=20;fontColor=#000000;align=center;verticalAlign=middle;" parent="1" source="yVmeeTijZnfeH4OOuYgs-108" target="yVmeeTijZnfeH4OOuYgs-113" edge="1">
          <mxGeometry relative="1" as="geometry" />
        </mxCell>
        <mxCell id="yVmeeTijZnfeH4OOuYgs-115" value="No" style="edgeLabel;html=1;align=center;verticalAlign=middle;resizable=0;points=[];fontSize=20;fontColor=#000000;" parent="yVmeeTijZnfeH4OOuYgs-114" vertex="1" connectable="0">
          <mxGeometry x="-0.2986" y="4" relative="1" as="geometry">
            <mxPoint x="1.58" y="14.31" as="offset" />
          </mxGeometry>
        </mxCell>
        <mxCell id="yVmeeTijZnfeH4OOuYgs-108" value="&lt;span style=&quot;color: rgb(0, 0, 0); font-family: helvetica; font-size: 20px; font-style: normal; font-weight: 400; letter-spacing: normal; text-indent: 0px; text-transform: none; word-spacing: 0px; background-color: rgb(248, 249, 250); display: inline; float: none;&quot;&gt;Clickable&lt;/span&gt;" style="text;whiteSpace=wrap;html=1;fontSize=20;fontColor=#333333;fillColor=#f5f5f5;strokeColor=#666666;align=center;verticalAlign=middle;" parent="1" vertex="1">
          <mxGeometry x="1308" y="840.04" width="102" height="40" as="geometry" />
        </mxCell>
        <mxCell id="yVmeeTijZnfeH4OOuYgs-110" value="&lt;span style=&quot;color: rgb(0 , 0 , 0) ; font-family: &amp;quot;helvetica&amp;quot; ; font-size: 20px ; font-style: normal ; font-weight: 400 ; letter-spacing: normal ; text-indent: 0px ; text-transform: none ; word-spacing: 0px ; background-color: rgb(248 , 249 , 250) ; display: inline ; float: none&quot;&gt;-0.164&lt;br&gt;&lt;/span&gt;" style="text;whiteSpace=wrap;html=1;fontSize=20;fontColor=#333333;fillColor=#f5f5f5;strokeColor=#666666;align=center;verticalAlign=middle;" parent="1" vertex="1">
          <mxGeometry x="1281" y="960.04" width="79" height="40" as="geometry" />
        </mxCell>
        <mxCell id="yVmeeTijZnfeH4OOuYgs-113" value="&lt;span style=&quot;color: rgb(0 , 0 , 0) ; font-family: &amp;quot;helvetica&amp;quot; ; font-size: 20px ; font-style: normal ; font-weight: 400 ; letter-spacing: normal ; text-indent: 0px ; text-transform: none ; word-spacing: 0px ; background-color: rgb(248 , 249 , 250) ; display: inline ; float: none&quot;&gt;-0.036&lt;br&gt;&lt;/span&gt;" style="text;whiteSpace=wrap;html=1;fontSize=20;fontColor=#333333;fillColor=#f5f5f5;strokeColor=#666666;align=center;verticalAlign=middle;" parent="1" vertex="1">
          <mxGeometry x="1370" y="960" width="79" height="40" as="geometry" />
        </mxCell>
        <mxCell id="yVmeeTijZnfeH4OOuYgs-116" value="&lt;span style=&quot;color: rgb(0 , 0 , 0) ; font-family: &amp;quot;helvetica&amp;quot; ; font-size: 20px ; font-style: normal ; font-weight: 400 ; letter-spacing: normal ; text-indent: 0px ; text-transform: none ; word-spacing: 0px ; background-color: rgb(248 , 249 , 250) ; display: inline ; float: none&quot;&gt;-0.144&lt;br&gt;&lt;/span&gt;" style="text;whiteSpace=wrap;html=1;fontSize=20;fontColor=#333333;fillColor=#f5f5f5;strokeColor=#666666;align=center;verticalAlign=middle;" parent="1" vertex="1">
          <mxGeometry x="560" y="840.04" width="90" height="40" as="geometry" />
        </mxCell>
        <mxCell id="yVmeeTijZnfeH4OOuYgs-120" value="&lt;span style=&quot;color: rgb(0 , 0 , 0) ; font-family: &amp;quot;helvetica&amp;quot; ; font-size: 20px ; font-style: normal ; font-weight: 400 ; letter-spacing: normal ; text-indent: 0px ; text-transform: none ; word-spacing: 0px ; background-color: rgb(248 , 249 , 250) ; display: inline ; float: none&quot;&gt;0.072&lt;br&gt;&lt;/span&gt;" style="text;whiteSpace=wrap;html=1;fontSize=20;fontColor=#333333;fillColor=#f5f5f5;strokeColor=#666666;align=center;verticalAlign=middle;" parent="1" vertex="1">
          <mxGeometry x="662" y="840.04" width="90" height="40" as="geometry" />
        </mxCell>
        <mxCell id="yVmeeTijZnfeH4OOuYgs-123" value="&lt;span style=&quot;color: rgb(0 , 0 , 0) ; font-family: &amp;quot;helvetica&amp;quot; ; font-size: 20px ; font-style: normal ; font-weight: 400 ; letter-spacing: normal ; text-indent: 0px ; text-transform: none ; word-spacing: 0px ; background-color: rgb(248 , 249 , 250) ; display: inline ; float: none&quot;&gt;-0.036&lt;br&gt;&lt;/span&gt;" style="text;whiteSpace=wrap;html=1;fontSize=20;fontColor=#333333;fillColor=#f5f5f5;strokeColor=#666666;align=center;verticalAlign=middle;" parent="1" vertex="1">
          <mxGeometry x="1000" y="839.96" width="90" height="40" as="geometry" />
        </mxCell>
        <mxCell id="yVmeeTijZnfeH4OOuYgs-128" value="&lt;span style=&quot;color: rgb(0 , 0 , 0) ; font-family: &amp;quot;helvetica&amp;quot; ; font-size: 20px ; font-style: normal ; font-weight: 400 ; letter-spacing: normal ; text-indent: 0px ; text-transform: none ; word-spacing: 0px ; background-color: rgb(248 , 249 , 250) ; display: inline ; float: none&quot;&gt;-0.062&lt;br&gt;&lt;/span&gt;" style="text;whiteSpace=wrap;html=1;fontSize=20;fontColor=#333333;fillColor=#f5f5f5;strokeColor=#666666;align=center;verticalAlign=middle;" parent="1" vertex="1">
          <mxGeometry x="774" y="960" width="90" height="40" as="geometry" />
        </mxCell>
        <mxCell id="yVmeeTijZnfeH4OOuYgs-131" value="&lt;span style=&quot;color: rgb(0 , 0 , 0) ; font-family: &amp;quot;helvetica&amp;quot; ; font-size: 20px ; font-style: normal ; font-weight: 400 ; letter-spacing: normal ; text-indent: 0px ; text-transform: none ; word-spacing: 0px ; background-color: rgb(248 , 249 , 250) ; display: inline ; float: none&quot;&gt;-0.217&lt;br&gt;&lt;/span&gt;" style="text;whiteSpace=wrap;html=1;fontSize=20;fontColor=#333333;fillColor=#f5f5f5;strokeColor=#666666;align=center;verticalAlign=middle;" parent="1" vertex="1">
          <mxGeometry x="876" y="960.04" width="90" height="40" as="geometry" />
        </mxCell>
        <mxCell id="9R86Hc6VQcKZYcWIiJc9-2" value="&lt;font style=&quot;font-size: 22px&quot;&gt;UI Type+contour+Screen UI ratio + Text&lt;/font&gt;" style="text;html=1;strokeColor=none;fillColor=none;align=center;verticalAlign=middle;whiteSpace=wrap;rounded=0;" parent="1" vertex="1">
          <mxGeometry x="440" y="70" width="430" height="20" as="geometry" />
        </mxCell>
        <mxCell id="9R86Hc6VQcKZYcWIiJc9-4" value="&lt;div style=&quot;color: rgb(0, 0, 0); font-family: helvetica; font-size: 16px; font-style: normal; font-weight: 400; letter-spacing: normal; text-align: left; text-indent: 0px; text-transform: none; word-spacing: 0px; background-color: rgb(248, 249, 250);&quot;&gt;1Multi-page Slider&lt;/div&gt;&lt;div style=&quot;color: rgb(0, 0, 0); font-family: helvetica; font-size: 16px; font-style: normal; font-weight: 400; letter-spacing: normal; text-align: left; text-indent: 0px; text-transform: none; word-spacing: 0px; background-color: rgb(248, 249, 250);&quot;&gt;&lt;span style=&quot;font-size: 16px;&quot;&gt;&lt;span style=&quot;font-size: 16px;&quot;&gt;2&amp;nbsp;&lt;/span&gt;&lt;/span&gt;Text&lt;/div&gt;&lt;div style=&quot;color: rgb(0, 0, 0); font-family: helvetica; font-size: 16px; font-style: normal; font-weight: 400; letter-spacing: normal; text-align: left; text-indent: 0px; text-transform: none; word-spacing: 0px; background-color: rgb(248, 249, 250);&quot;&gt;&lt;span style=&quot;font-size: 16px;&quot;&gt;&lt;span style=&quot;font-size: 16px;&quot;&gt;3&amp;nbsp;&lt;/span&gt;&lt;/span&gt;Talking box/Text box&lt;/div&gt;&lt;div style=&quot;color: rgb(0, 0, 0); font-family: helvetica; font-size: 16px; font-style: normal; font-weight: 400; letter-spacing: normal; text-align: left; text-indent: 0px; text-transform: none; word-spacing: 0px; background-color: rgb(248, 249, 250);&quot;&gt;&lt;span style=&quot;font-size: 16px;&quot;&gt;&lt;span style=&quot;font-size: 16px;&quot;&gt;4&amp;nbsp;&lt;/span&gt;&lt;/span&gt;Stage Transition Button&lt;/div&gt;&lt;div style=&quot;color: rgb(0, 0, 0); font-family: helvetica; font-size: 16px; font-style: normal; font-weight: 400; letter-spacing: normal; text-align: left; text-indent: 0px; text-transform: none; word-spacing: 0px; background-color: rgb(248, 249, 250);&quot;&gt;&lt;span style=&quot;font-size: 16px;&quot;&gt;&lt;span style=&quot;font-size: 16px;&quot;&gt;5&amp;nbsp;&lt;/span&gt;&lt;/span&gt;Confirmation Button&lt;/div&gt;&lt;div style=&quot;color: rgb(0, 0, 0); font-family: helvetica; font-size: 16px; font-style: normal; font-weight: 400; letter-spacing: normal; text-align: left; text-indent: 0px; text-transform: none; word-spacing: 0px; background-color: rgb(248, 249, 250);&quot;&gt;&lt;span style=&quot;font-size: 16px;&quot;&gt;&lt;span style=&quot;font-size: 16px;&quot;&gt;6&amp;nbsp;&lt;/span&gt;&lt;/span&gt;Highlight&lt;/div&gt;&lt;div style=&quot;color: rgb(0, 0, 0); font-family: helvetica; font-size: 16px; font-style: normal; font-weight: 400; letter-spacing: normal; text-align: left; text-indent: 0px; text-transform: none; word-spacing: 0px; background-color: rgb(248, 249, 250);&quot;&gt;&lt;span style=&quot;font-size: 16px;&quot;&gt;&lt;span style=&quot;font-size: 16px;&quot;&gt;7&amp;nbsp;&lt;/span&gt;&lt;/span&gt;Mask&lt;/div&gt;&lt;div style=&quot;color: rgb(0, 0, 0); font-family: helvetica; font-size: 16px; font-style: normal; font-weight: 400; letter-spacing: normal; text-align: left; text-indent: 0px; text-transform: none; word-spacing: 0px; background-color: rgb(248, 249, 250);&quot;&gt;&lt;span style=&quot;font-size: 16px;&quot;&gt;&lt;span style=&quot;font-size: 16px;&quot;&gt;8&amp;nbsp;&lt;/span&gt;&lt;/span&gt;Arrow&lt;/div&gt;&lt;div style=&quot;color: rgb(0, 0, 0); font-family: helvetica; font-size: 16px; font-style: normal; font-weight: 400; letter-spacing: normal; text-align: left; text-indent: 0px; text-transform: none; word-spacing: 0px; background-color: rgb(248, 249, 250);&quot;&gt;&lt;span style=&quot;font-size: 16px;&quot;&gt;&lt;span style=&quot;font-size: 16px;&quot;&gt;9&amp;nbsp;&lt;/span&gt;&lt;/span&gt;Virtual Hand&lt;/div&gt;&lt;div style=&quot;color: rgb(0, 0, 0); font-family: helvetica; font-size: 16px; font-style: normal; font-weight: 400; letter-spacing: normal; text-align: left; text-indent: 0px; text-transform: none; word-spacing: 0px; background-color: rgb(248, 249, 250);&quot;&gt;10&lt;span style=&quot;font-size: 16px;&quot;&gt;&lt;span style=&quot;font-size: 16px;&quot;&gt;&amp;nbsp;&lt;/span&gt;&lt;/span&gt;Demo Animation/Video&lt;/div&gt;&lt;div style=&quot;color: rgb(0, 0, 0); font-family: helvetica; font-size: 16px; font-style: normal; font-weight: 400; letter-spacing: normal; text-align: left; text-indent: 0px; text-transform: none; word-spacing: 0px; background-color: rgb(248, 249, 250);&quot;&gt;11&lt;span style=&quot;font-size: 16px;&quot;&gt;&lt;span style=&quot;font-size: 16px;&quot;&gt;&amp;nbsp;&lt;/span&gt;&lt;/span&gt;Static Image&lt;/div&gt;" style="text;whiteSpace=wrap;html=1;fontSize=16;" parent="1" vertex="1">
          <mxGeometry x="-1380" y="749.94" width="240" height="220" as="geometry" />
        </mxCell>
        <mxCell id="9R86Hc6VQcKZYcWIiJc9-13" style="edgeStyle=none;rounded=0;orthogonalLoop=1;jettySize=auto;html=1;exitX=0.25;exitY=1;exitDx=0;exitDy=0;entryX=0.5;entryY=0;entryDx=0;entryDy=0;fontSize=16;verticalAlign=middle;" parent="1" source="9R86Hc6VQcKZYcWIiJc9-6" target="9R86Hc6VQcKZYcWIiJc9-10" edge="1">
          <mxGeometry relative="1" as="geometry" />
        </mxCell>
        <mxCell id="9R86Hc6VQcKZYcWIiJc9-18" value="Yes" style="edgeLabel;html=1;align=center;verticalAlign=middle;resizable=0;points=[];fontSize=16;" parent="9R86Hc6VQcKZYcWIiJc9-13" vertex="1" connectable="0">
          <mxGeometry x="-0.1892" y="1" relative="1" as="geometry">
            <mxPoint x="-6.83" y="5.82" as="offset" />
          </mxGeometry>
        </mxCell>
        <mxCell id="9R86Hc6VQcKZYcWIiJc9-17" style="edgeStyle=none;rounded=0;orthogonalLoop=1;jettySize=auto;html=1;exitX=0.75;exitY=1;exitDx=0;exitDy=0;entryX=0.5;entryY=0;entryDx=0;entryDy=0;fontSize=16;verticalAlign=middle;" parent="1" source="9R86Hc6VQcKZYcWIiJc9-6" target="9R86Hc6VQcKZYcWIiJc9-8" edge="1">
          <mxGeometry relative="1" as="geometry" />
        </mxCell>
        <mxCell id="9R86Hc6VQcKZYcWIiJc9-19" value="No" style="edgeLabel;html=1;align=center;verticalAlign=middle;resizable=0;points=[];fontSize=16;" parent="9R86Hc6VQcKZYcWIiJc9-17" vertex="1" connectable="0">
          <mxGeometry x="-0.1788" y="1" relative="1" as="geometry">
            <mxPoint y="6" as="offset" />
          </mxGeometry>
        </mxCell>
        <mxCell id="9R86Hc6VQcKZYcWIiJc9-6" value="&lt;span style=&quot;color: rgb(0 , 0 , 0) ; font-family: &amp;#34;helvetica&amp;#34; ; font-size: 16px ; font-style: normal ; letter-spacing: normal ; text-indent: 0px ; text-transform: none ; word-spacing: 0px ; background-color: rgb(248 , 249 , 250) ; display: inline ; float: none&quot;&gt;Demo Animation/Video&lt;/span&gt;" style="text;whiteSpace=wrap;html=1;fontColor=#333333;fontStyle=1;fontSize=16;fillColor=#f5f5f5;strokeColor=#666666;align=center;verticalAlign=middle;" parent="1" vertex="1">
          <mxGeometry x="-1960" y="480" width="160" height="40" as="geometry" />
        </mxCell>
        <mxCell id="9R86Hc6VQcKZYcWIiJc9-37" value="Yes" style="edgeStyle=none;rounded=0;orthogonalLoop=1;jettySize=auto;html=1;exitX=0.25;exitY=1;exitDx=0;exitDy=0;entryX=0.5;entryY=0;entryDx=0;entryDy=0;fontSize=16;" parent="1" source="9R86Hc6VQcKZYcWIiJc9-8" target="9R86Hc6VQcKZYcWIiJc9-36" edge="1">
          <mxGeometry relative="1" as="geometry" />
        </mxCell>
        <mxCell id="9R86Hc6VQcKZYcWIiJc9-40" style="edgeStyle=none;rounded=0;orthogonalLoop=1;jettySize=auto;html=1;exitX=0.75;exitY=1;exitDx=0;exitDy=0;entryX=0.5;entryY=0;entryDx=0;entryDy=0;fontSize=16;" parent="1" source="9R86Hc6VQcKZYcWIiJc9-8" target="9R86Hc6VQcKZYcWIiJc9-39" edge="1">
          <mxGeometry relative="1" as="geometry" />
        </mxCell>
        <mxCell id="9R86Hc6VQcKZYcWIiJc9-41" value="No" style="edgeLabel;html=1;align=center;verticalAlign=middle;resizable=0;points=[];fontSize=16;" parent="9R86Hc6VQcKZYcWIiJc9-40" vertex="1" connectable="0">
          <mxGeometry x="-0.33" y="-1" relative="1" as="geometry">
            <mxPoint x="10.8" y="12.73" as="offset" />
          </mxGeometry>
        </mxCell>
        <mxCell id="9R86Hc6VQcKZYcWIiJc9-8" value="&lt;span style=&quot;color: rgb(0 , 0 , 0) ; font-family: &amp;quot;helvetica&amp;quot; ; font-size: 16px ; font-style: normal ; letter-spacing: normal ; text-indent: 0px ; text-transform: none ; word-spacing: 0px ; background-color: rgb(248 , 249 , 250) ; display: inline ; float: none&quot;&gt;Static Image&lt;/span&gt;" style="text;whiteSpace=wrap;html=1;fontColor=#333333;fontStyle=0;fontSize=16;fillColor=#f5f5f5;strokeColor=#666666;align=center;verticalAlign=middle;" parent="1" vertex="1">
          <mxGeometry x="-1760" y="600" width="120" height="40" as="geometry" />
        </mxCell>
        <mxCell id="9R86Hc6VQcKZYcWIiJc9-15" style="edgeStyle=none;rounded=0;orthogonalLoop=1;jettySize=auto;html=1;entryX=0.5;entryY=0;entryDx=0;entryDy=0;fontSize=16;exitX=0.75;exitY=1;exitDx=0;exitDy=0;verticalAlign=middle;" parent="1" source="9R86Hc6VQcKZYcWIiJc9-10" target="9R86Hc6VQcKZYcWIiJc9-14" edge="1">
          <mxGeometry relative="1" as="geometry" />
        </mxCell>
        <mxCell id="9R86Hc6VQcKZYcWIiJc9-23" value="No" style="edgeLabel;html=1;align=center;verticalAlign=middle;resizable=0;points=[];fontSize=16;" parent="9R86Hc6VQcKZYcWIiJc9-15" vertex="1" connectable="0">
          <mxGeometry x="-0.4986" y="4" relative="1" as="geometry">
            <mxPoint x="6.58" y="22.11" as="offset" />
          </mxGeometry>
        </mxCell>
        <mxCell id="9R86Hc6VQcKZYcWIiJc9-26" style="edgeStyle=none;rounded=0;orthogonalLoop=1;jettySize=auto;html=1;exitX=0.25;exitY=1;exitDx=0;exitDy=0;entryX=0.5;entryY=0;entryDx=0;entryDy=0;fontSize=16;" parent="1" source="9R86Hc6VQcKZYcWIiJc9-10" target="9R86Hc6VQcKZYcWIiJc9-25" edge="1">
          <mxGeometry relative="1" as="geometry" />
        </mxCell>
        <mxCell id="9R86Hc6VQcKZYcWIiJc9-29" value="Yes" style="edgeLabel;html=1;align=center;verticalAlign=middle;resizable=0;points=[];fontSize=16;" parent="9R86Hc6VQcKZYcWIiJc9-26" vertex="1" connectable="0">
          <mxGeometry x="-0.2521" relative="1" as="geometry">
            <mxPoint y="10.04" as="offset" />
          </mxGeometry>
        </mxCell>
        <mxCell id="9R86Hc6VQcKZYcWIiJc9-10" value="&lt;span style=&quot;color: rgb(0 , 0 , 0) ; font-family: &amp;#34;helvetica&amp;#34; ; text-align: left&quot;&gt;Stage Transition Button&lt;/span&gt;" style="text;whiteSpace=wrap;html=1;fontColor=#333333;fontStyle=0;fontSize=16;fillColor=#f5f5f5;strokeColor=#666666;align=center;verticalAlign=middle;" parent="1" vertex="1">
          <mxGeometry x="-2100" y="600" width="120" height="40" as="geometry" />
        </mxCell>
        <mxCell id="9R86Hc6VQcKZYcWIiJc9-22" style="edgeStyle=none;rounded=0;orthogonalLoop=1;jettySize=auto;html=1;exitX=0.75;exitY=1;exitDx=0;exitDy=0;entryX=0.5;entryY=0;entryDx=0;entryDy=0;fontSize=16;" parent="1" source="9R86Hc6VQcKZYcWIiJc9-14" target="9R86Hc6VQcKZYcWIiJc9-21" edge="1">
          <mxGeometry relative="1" as="geometry" />
        </mxCell>
        <mxCell id="9R86Hc6VQcKZYcWIiJc9-24" value="No" style="edgeLabel;html=1;align=center;verticalAlign=middle;resizable=0;points=[];fontSize=16;" parent="9R86Hc6VQcKZYcWIiJc9-22" vertex="1" connectable="0">
          <mxGeometry x="0.3871" relative="1" as="geometry">
            <mxPoint x="-7.73" y="-15.45" as="offset" />
          </mxGeometry>
        </mxCell>
        <mxCell id="9R86Hc6VQcKZYcWIiJc9-28" style="edgeStyle=none;rounded=0;orthogonalLoop=1;jettySize=auto;html=1;exitX=0.25;exitY=1;exitDx=0;exitDy=0;entryX=0.5;entryY=0;entryDx=0;entryDy=0;fontSize=16;" parent="1" source="9R86Hc6VQcKZYcWIiJc9-14" target="9R86Hc6VQcKZYcWIiJc9-27" edge="1">
          <mxGeometry relative="1" as="geometry" />
        </mxCell>
        <mxCell id="9R86Hc6VQcKZYcWIiJc9-30" value="Yes" style="edgeLabel;html=1;align=center;verticalAlign=middle;resizable=0;points=[];fontSize=16;" parent="9R86Hc6VQcKZYcWIiJc9-28" vertex="1" connectable="0">
          <mxGeometry x="-0.32" relative="1" as="geometry">
            <mxPoint x="-6" y="13.17" as="offset" />
          </mxGeometry>
        </mxCell>
        <mxCell id="9R86Hc6VQcKZYcWIiJc9-14" value="&lt;span style=&quot;color: rgb(0 , 0 , 0) ; font-family: &amp;#34;helvetica&amp;#34; ; text-align: left&quot;&gt;Multi-page Slider&lt;/span&gt;" style="text;whiteSpace=wrap;html=1;fontColor=#333333;fontStyle=0;fontSize=16;fillColor=#f5f5f5;strokeColor=#666666;align=center;verticalAlign=middle;" parent="1" vertex="1">
          <mxGeometry x="-2040" y="719.98" width="120" height="40" as="geometry" />
        </mxCell>
        <mxCell id="9R86Hc6VQcKZYcWIiJc9-32" style="edgeStyle=none;rounded=0;orthogonalLoop=1;jettySize=auto;html=1;exitX=0.25;exitY=1;exitDx=0;exitDy=0;entryX=0.5;entryY=0;entryDx=0;entryDy=0;fontSize=16;" parent="1" source="9R86Hc6VQcKZYcWIiJc9-21" target="9R86Hc6VQcKZYcWIiJc9-31" edge="1">
          <mxGeometry relative="1" as="geometry" />
        </mxCell>
        <mxCell id="9R86Hc6VQcKZYcWIiJc9-33" value="Yes" style="edgeLabel;html=1;align=center;verticalAlign=middle;resizable=0;points=[];fontSize=16;" parent="9R86Hc6VQcKZYcWIiJc9-32" vertex="1" connectable="0">
          <mxGeometry x="0.2603" y="-1" relative="1" as="geometry">
            <mxPoint y="-10.21" as="offset" />
          </mxGeometry>
        </mxCell>
        <mxCell id="9R86Hc6VQcKZYcWIiJc9-35" style="edgeStyle=none;rounded=0;orthogonalLoop=1;jettySize=auto;html=1;exitX=0.75;exitY=1;exitDx=0;exitDy=0;entryX=0.5;entryY=0;entryDx=0;entryDy=0;fontSize=16;" parent="1" source="9R86Hc6VQcKZYcWIiJc9-21" target="9R86Hc6VQcKZYcWIiJc9-34" edge="1">
          <mxGeometry relative="1" as="geometry" />
        </mxCell>
        <mxCell id="9R86Hc6VQcKZYcWIiJc9-38" value="No" style="edgeLabel;html=1;align=center;verticalAlign=middle;resizable=0;points=[];fontSize=16;" parent="9R86Hc6VQcKZYcWIiJc9-35" vertex="1" connectable="0">
          <mxGeometry x="-0.352" y="-3" relative="1" as="geometry">
            <mxPoint x="3.15" y="13.2" as="offset" />
          </mxGeometry>
        </mxCell>
        <mxCell id="9R86Hc6VQcKZYcWIiJc9-21" value="&lt;span style=&quot;color: rgb(0 , 0 , 0) ; font-family: &amp;#34;helvetica&amp;#34; ; text-align: left&quot;&gt;Virtual Hand&lt;/span&gt;" style="text;whiteSpace=wrap;html=1;fontColor=#333333;fontStyle=0;fontSize=16;fillColor=#f5f5f5;strokeColor=#666666;align=center;verticalAlign=middle;" parent="1" vertex="1">
          <mxGeometry x="-1980" y="839.9399999999999" width="120" height="40" as="geometry" />
        </mxCell>
        <mxCell id="9R86Hc6VQcKZYcWIiJc9-25" value="+0.220" style="text;whiteSpace=wrap;html=1;fontColor=#333333;fontStyle=0;fontSize=16;fillColor=#f5f5f5;strokeColor=#666666;align=center;verticalAlign=middle;" parent="1" vertex="1">
          <mxGeometry x="-2140" y="719.98" width="80" height="40" as="geometry" />
        </mxCell>
        <mxCell id="9R86Hc6VQcKZYcWIiJc9-27" value="+0.129" style="text;whiteSpace=wrap;html=1;fontColor=#333333;fontStyle=0;fontSize=16;fillColor=#f5f5f5;strokeColor=#666666;align=center;verticalAlign=middle;" parent="1" vertex="1">
          <mxGeometry x="-2080" y="839.98" width="80" height="40" as="geometry" />
        </mxCell>
        <mxCell id="9R86Hc6VQcKZYcWIiJc9-31" value="-0.129" style="text;whiteSpace=wrap;html=1;fontColor=#333333;fontStyle=0;fontSize=16;fillColor=#f5f5f5;strokeColor=#666666;align=center;verticalAlign=middle;" parent="1" vertex="1">
          <mxGeometry x="-2020" y="959.9399999999999" width="80" height="40" as="geometry" />
        </mxCell>
        <mxCell id="9R86Hc6VQcKZYcWIiJc9-34" value="-0.036" style="text;whiteSpace=wrap;html=1;fontColor=#333333;fontStyle=0;fontSize=16;fillColor=#f5f5f5;strokeColor=#666666;align=center;verticalAlign=middle;" parent="1" vertex="1">
          <mxGeometry x="-1900" y="959.9399999999999" width="80" height="40" as="geometry" />
        </mxCell>
        <mxCell id="9R86Hc6VQcKZYcWIiJc9-43" value="Yes" style="edgeStyle=none;rounded=0;orthogonalLoop=1;jettySize=auto;html=1;exitX=0.25;exitY=1;exitDx=0;exitDy=0;entryX=0.5;entryY=0;entryDx=0;entryDy=0;fontSize=16;" parent="1" source="9R86Hc6VQcKZYcWIiJc9-36" target="9R86Hc6VQcKZYcWIiJc9-42" edge="1">
          <mxGeometry relative="1" as="geometry" />
        </mxCell>
        <mxCell id="9R86Hc6VQcKZYcWIiJc9-45" value="No" style="edgeStyle=none;rounded=0;orthogonalLoop=1;jettySize=auto;html=1;exitX=0.75;exitY=1;exitDx=0;exitDy=0;entryX=0.5;entryY=0;entryDx=0;entryDy=0;fontSize=16;" parent="1" source="9R86Hc6VQcKZYcWIiJc9-36" target="9R86Hc6VQcKZYcWIiJc9-44" edge="1">
          <mxGeometry relative="1" as="geometry" />
        </mxCell>
        <mxCell id="9R86Hc6VQcKZYcWIiJc9-36" value="&lt;span style=&quot;color: rgb(0 , 0 , 0) ; font-family: &amp;#34;helvetica&amp;#34; ; text-align: left&quot;&gt;Stage Transition Button&lt;/span&gt;" style="text;whiteSpace=wrap;html=1;fontColor=#333333;fontStyle=0;fontSize=16;fillColor=#f5f5f5;strokeColor=#666666;align=center;verticalAlign=middle;" parent="1" vertex="1">
          <mxGeometry x="-1830" y="720" width="120" height="40" as="geometry" />
        </mxCell>
        <mxCell id="9R86Hc6VQcKZYcWIiJc9-60" value="Yes" style="edgeStyle=none;rounded=0;orthogonalLoop=1;jettySize=auto;html=1;exitX=0.25;exitY=1;exitDx=0;exitDy=0;entryX=0.5;entryY=0;entryDx=0;entryDy=0;fontSize=16;" parent="1" source="9R86Hc6VQcKZYcWIiJc9-39" target="9R86Hc6VQcKZYcWIiJc9-59" edge="1">
          <mxGeometry relative="1" as="geometry" />
        </mxCell>
        <mxCell id="9R86Hc6VQcKZYcWIiJc9-62" style="edgeStyle=none;rounded=0;orthogonalLoop=1;jettySize=auto;html=1;exitX=0.75;exitY=1;exitDx=0;exitDy=0;entryX=0.5;entryY=0;entryDx=0;entryDy=0;fontSize=16;" parent="1" source="9R86Hc6VQcKZYcWIiJc9-39" target="9R86Hc6VQcKZYcWIiJc9-61" edge="1">
          <mxGeometry relative="1" as="geometry" />
        </mxCell>
        <mxCell id="9R86Hc6VQcKZYcWIiJc9-39" value="&lt;span style=&quot;color: rgb(0 , 0 , 0) ; font-family: &amp;#34;helvetica&amp;#34; ; text-align: left&quot;&gt;Confirmation Button&lt;/span&gt;" style="text;whiteSpace=wrap;html=1;fontColor=#333333;fontStyle=0;fontSize=16;fillColor=#f5f5f5;strokeColor=#666666;align=center;verticalAlign=middle;" parent="1" vertex="1">
          <mxGeometry x="-1620" y="720" width="120" height="40" as="geometry" />
        </mxCell>
        <mxCell id="9R86Hc6VQcKZYcWIiJc9-42" value="+0.095" style="text;whiteSpace=wrap;html=1;fontColor=#333333;fontStyle=0;fontSize=16;fillColor=#f5f5f5;strokeColor=#666666;align=center;verticalAlign=middle;" parent="1" vertex="1">
          <mxGeometry x="-1850" y="839.96" width="80" height="40" as="geometry" />
        </mxCell>
        <mxCell id="9R86Hc6VQcKZYcWIiJc9-48" value="No" style="edgeStyle=none;rounded=0;orthogonalLoop=1;jettySize=auto;html=1;exitX=0.75;exitY=1;exitDx=0;exitDy=0;entryX=0.5;entryY=0;entryDx=0;entryDy=0;fontSize=16;" parent="1" source="9R86Hc6VQcKZYcWIiJc9-44" target="9R86Hc6VQcKZYcWIiJc9-47" edge="1">
          <mxGeometry relative="1" as="geometry" />
        </mxCell>
        <mxCell id="9R86Hc6VQcKZYcWIiJc9-50" value="Yes" style="edgeStyle=none;rounded=0;orthogonalLoop=1;jettySize=auto;html=1;exitX=0.25;exitY=1;exitDx=0;exitDy=0;entryX=0.5;entryY=0;entryDx=0;entryDy=0;fontSize=16;" parent="1" source="9R86Hc6VQcKZYcWIiJc9-44" target="9R86Hc6VQcKZYcWIiJc9-49" edge="1">
          <mxGeometry relative="1" as="geometry" />
        </mxCell>
        <mxCell id="9R86Hc6VQcKZYcWIiJc9-44" value="&lt;span style=&quot;color: rgb(0 , 0 , 0) ; font-family: &amp;#34;helvetica&amp;#34; ; font-size: 16px ; font-style: normal ; letter-spacing: normal ; text-indent: 0px ; text-transform: none ; word-spacing: 0px ; background-color: rgb(248 , 249 , 250) ; display: inline ; float: none&quot;&gt;Text&lt;/span&gt;" style="text;whiteSpace=wrap;html=1;fontColor=#333333;fontStyle=0;fontSize=16;fillColor=#f5f5f5;strokeColor=#666666;align=center;verticalAlign=middle;" parent="1" vertex="1">
          <mxGeometry x="-1760" y="840.04" width="120" height="40" as="geometry" />
        </mxCell>
        <mxCell id="9R86Hc6VQcKZYcWIiJc9-47" value="-0.17" style="text;whiteSpace=wrap;html=1;fontColor=#333333;fontStyle=0;fontSize=16;fillColor=#f5f5f5;strokeColor=#666666;align=center;verticalAlign=middle;" parent="1" vertex="1">
          <mxGeometry x="-1680" y="960.04" width="80" height="40" as="geometry" />
        </mxCell>
        <mxCell id="9R86Hc6VQcKZYcWIiJc9-52" value="Yes" style="edgeStyle=none;rounded=0;orthogonalLoop=1;jettySize=auto;html=1;exitX=0.25;exitY=1;exitDx=0;exitDy=0;entryX=0.5;entryY=0;entryDx=0;entryDy=0;fontSize=16;" parent="1" source="9R86Hc6VQcKZYcWIiJc9-49" target="9R86Hc6VQcKZYcWIiJc9-51" edge="1">
          <mxGeometry relative="1" as="geometry" />
        </mxCell>
        <mxCell id="9R86Hc6VQcKZYcWIiJc9-54" value="No" style="edgeStyle=none;rounded=0;orthogonalLoop=1;jettySize=auto;html=1;exitX=0.75;exitY=1;exitDx=0;exitDy=0;entryX=0.5;entryY=0;entryDx=0;entryDy=0;fontSize=16;" parent="1" source="9R86Hc6VQcKZYcWIiJc9-49" target="9R86Hc6VQcKZYcWIiJc9-53" edge="1">
          <mxGeometry relative="1" as="geometry" />
        </mxCell>
        <mxCell id="9R86Hc6VQcKZYcWIiJc9-49" value="&lt;span style=&quot;color: rgb(0 , 0 , 0) ; font-family: &amp;#34;helvetica&amp;#34; ; text-align: left&quot;&gt;Confirmation Button&lt;/span&gt;" style="text;whiteSpace=wrap;html=1;fontColor=#333333;fontStyle=0;fontSize=16;fillColor=#f5f5f5;strokeColor=#666666;align=center;verticalAlign=middle;" parent="1" vertex="1">
          <mxGeometry x="-1810" y="959.94" width="120" height="40" as="geometry" />
        </mxCell>
        <mxCell id="9R86Hc6VQcKZYcWIiJc9-51" value="-0.155" style="text;whiteSpace=wrap;html=1;fontColor=#333333;fontStyle=0;fontSize=16;fillColor=#f5f5f5;strokeColor=#666666;align=center;verticalAlign=middle;" parent="1" vertex="1">
          <mxGeometry x="-1850" y="1080" width="80" height="40" as="geometry" />
        </mxCell>
        <mxCell id="9R86Hc6VQcKZYcWIiJc9-56" value="Yes" style="edgeStyle=none;rounded=0;orthogonalLoop=1;jettySize=auto;html=1;exitX=0.25;exitY=1;exitDx=0;exitDy=0;entryX=0.5;entryY=0;entryDx=0;entryDy=0;fontSize=16;" parent="1" source="9R86Hc6VQcKZYcWIiJc9-53" target="9R86Hc6VQcKZYcWIiJc9-55" edge="1">
          <mxGeometry relative="1" as="geometry" />
        </mxCell>
        <mxCell id="9R86Hc6VQcKZYcWIiJc9-58" value="No" style="edgeStyle=none;rounded=0;orthogonalLoop=1;jettySize=auto;html=1;exitX=0.75;exitY=1;exitDx=0;exitDy=0;entryX=0.5;entryY=0;entryDx=0;entryDy=0;fontSize=16;" parent="1" source="9R86Hc6VQcKZYcWIiJc9-53" target="9R86Hc6VQcKZYcWIiJc9-57" edge="1">
          <mxGeometry relative="1" as="geometry" />
        </mxCell>
        <mxCell id="9R86Hc6VQcKZYcWIiJc9-53" value="&lt;span style=&quot;color: rgb(0 , 0 , 0) ; font-family: &amp;#34;helvetica&amp;#34; ; font-size: 16px ; font-style: normal ; letter-spacing: normal ; text-indent: 0px ; text-transform: none ; word-spacing: 0px ; background-color: rgb(248 , 249 , 250) ; display: inline ; float: none&quot;&gt;Arrow&lt;/span&gt;" style="text;whiteSpace=wrap;html=1;fontColor=#333333;fontStyle=0;fontSize=16;fillColor=#f5f5f5;strokeColor=#666666;align=center;verticalAlign=middle;" parent="1" vertex="1">
          <mxGeometry x="-1750" y="1080" width="120" height="40" as="geometry" />
        </mxCell>
        <mxCell id="9R86Hc6VQcKZYcWIiJc9-55" value="-0.044" style="text;whiteSpace=wrap;html=1;fontColor=#333333;fontStyle=0;fontSize=16;fillColor=#f5f5f5;strokeColor=#666666;align=center;verticalAlign=middle;" parent="1" vertex="1">
          <mxGeometry x="-1780" y="1200" width="80" height="40" as="geometry" />
        </mxCell>
        <mxCell id="9R86Hc6VQcKZYcWIiJc9-57" value="-0.007" style="text;whiteSpace=wrap;html=1;fontColor=#333333;fontStyle=0;fontSize=16;fillColor=#f5f5f5;strokeColor=#666666;align=center;verticalAlign=middle;" parent="1" vertex="1">
          <mxGeometry x="-1680" y="1200" width="80" height="40" as="geometry" />
        </mxCell>
        <mxCell id="9R86Hc6VQcKZYcWIiJc9-59" value="+0.129" style="text;whiteSpace=wrap;html=1;fontColor=#333333;fontStyle=0;fontSize=16;fillColor=#f5f5f5;strokeColor=#666666;align=center;verticalAlign=middle;" parent="1" vertex="1">
          <mxGeometry x="-1630" y="840" width="80" height="40" as="geometry" />
        </mxCell>
        <mxCell id="9R86Hc6VQcKZYcWIiJc9-64" value="Yes" style="edgeStyle=none;rounded=0;orthogonalLoop=1;jettySize=auto;html=1;exitX=0.25;exitY=1;exitDx=0;exitDy=0;entryX=0.5;entryY=0;entryDx=0;entryDy=0;fontSize=16;" parent="1" source="9R86Hc6VQcKZYcWIiJc9-61" target="9R86Hc6VQcKZYcWIiJc9-63" edge="1">
          <mxGeometry relative="1" as="geometry" />
        </mxCell>
        <mxCell id="9R86Hc6VQcKZYcWIiJc9-66" value="No" style="edgeStyle=none;rounded=0;orthogonalLoop=1;jettySize=auto;html=1;exitX=0.75;exitY=1;exitDx=0;exitDy=0;entryX=0.5;entryY=0;entryDx=0;entryDy=0;fontSize=16;" parent="1" source="9R86Hc6VQcKZYcWIiJc9-61" target="9R86Hc6VQcKZYcWIiJc9-65" edge="1">
          <mxGeometry relative="1" as="geometry" />
        </mxCell>
        <mxCell id="9R86Hc6VQcKZYcWIiJc9-61" value="&lt;span style=&quot;color: rgb(0 , 0 , 0) ; font-family: &amp;#34;helvetica&amp;#34; ; font-size: 16px ; font-style: normal ; letter-spacing: normal ; text-indent: 0px ; text-transform: none ; word-spacing: 0px ; background-color: rgb(248 , 249 , 250) ; display: inline ; float: none&quot;&gt;Mask&lt;/span&gt;" style="text;whiteSpace=wrap;html=1;fontColor=#333333;fontStyle=0;fontSize=16;fillColor=#f5f5f5;strokeColor=#666666;align=center;verticalAlign=middle;" parent="1" vertex="1">
          <mxGeometry x="-1540" y="840.04" width="120" height="40" as="geometry" />
        </mxCell>
        <mxCell id="9R86Hc6VQcKZYcWIiJc9-63" value="-0.216" style="text;whiteSpace=wrap;html=1;fontColor=#333333;fontStyle=0;fontSize=16;fillColor=#f5f5f5;strokeColor=#666666;align=center;verticalAlign=middle;" parent="1" vertex="1">
          <mxGeometry x="-1560" y="960.0400000000001" width="70" height="40" as="geometry" />
        </mxCell>
        <mxCell id="9R86Hc6VQcKZYcWIiJc9-65" value="-0.146" style="text;whiteSpace=wrap;html=1;fontColor=#333333;fontStyle=0;fontSize=16;fillColor=#f5f5f5;strokeColor=#666666;align=center;verticalAlign=middle;" parent="1" vertex="1">
          <mxGeometry x="-1485" y="959.94" width="70" height="40" as="geometry" />
        </mxCell>
        <mxCell id="SedPjR7rAk7AIs8v2ia8-1" value="RF" style="text;html=1;align=center;verticalAlign=middle;resizable=0;points=[];autosize=1;fontSize=20;" vertex="1" parent="1">
          <mxGeometry x="-1905" y="445" width="40" height="30" as="geometry" />
        </mxCell>
        <mxCell id="SedPjR7rAk7AIs8v2ia8-53" value="" style="group" vertex="1" connectable="0" parent="1">
          <mxGeometry x="-2940" y="520" width="730" height="640" as="geometry" />
        </mxCell>
        <mxCell id="SedPjR7rAk7AIs8v2ia8-4" value="&lt;span style=&quot;color: rgb(0 , 0 , 0) ; font-family: &amp;quot;helvetica&amp;quot; ; font-size: 16px ; font-style: normal ; letter-spacing: normal ; text-indent: 0px ; text-transform: none ; word-spacing: 0px ; background-color: rgb(248 , 249 , 250) ; display: inline ; float: none&quot;&gt;Static Image&lt;/span&gt;" style="text;whiteSpace=wrap;html=1;fontColor=#333333;fontStyle=1;fontSize=16;fillColor=#f5f5f5;strokeColor=#666666;align=center;verticalAlign=middle;" vertex="1" parent="SedPjR7rAk7AIs8v2ia8-53">
          <mxGeometry x="220" width="120" height="40" as="geometry" />
        </mxCell>
        <mxCell id="SedPjR7rAk7AIs8v2ia8-5" value="&lt;span style=&quot;color: rgb(0 , 0 , 0) ; font-family: &amp;#34;helvetica&amp;#34; ; text-align: left&quot;&gt;Confirmation Button&lt;/span&gt;" style="text;whiteSpace=wrap;html=1;fontColor=#333333;fontStyle=0;fontSize=16;fillColor=#f5f5f5;strokeColor=#666666;align=center;verticalAlign=middle;" vertex="1" parent="SedPjR7rAk7AIs8v2ia8-53">
          <mxGeometry x="310" y="100" width="120" height="40" as="geometry" />
        </mxCell>
        <mxCell id="SedPjR7rAk7AIs8v2ia8-8" value="No" style="edgeStyle=none;rounded=0;orthogonalLoop=1;jettySize=auto;html=1;exitX=0.75;exitY=1;exitDx=0;exitDy=0;entryX=0.5;entryY=0;entryDx=0;entryDy=0;fontSize=20;" edge="1" parent="SedPjR7rAk7AIs8v2ia8-53" source="SedPjR7rAk7AIs8v2ia8-4" target="SedPjR7rAk7AIs8v2ia8-5">
          <mxGeometry relative="1" as="geometry" />
        </mxCell>
        <mxCell id="SedPjR7rAk7AIs8v2ia8-6" value="&lt;span style=&quot;color: rgb(0 , 0 , 0) ; font-family: &amp;#34;helvetica&amp;#34; ; text-align: left&quot;&gt;Text&lt;/span&gt;" style="text;whiteSpace=wrap;html=1;fontColor=#333333;fontStyle=0;fontSize=16;fillColor=#f5f5f5;strokeColor=#666666;align=center;verticalAlign=middle;" vertex="1" parent="SedPjR7rAk7AIs8v2ia8-53">
          <mxGeometry x="140" y="100" width="120" height="40" as="geometry" />
        </mxCell>
        <mxCell id="SedPjR7rAk7AIs8v2ia8-7" value="Yes" style="rounded=0;orthogonalLoop=1;jettySize=auto;html=1;exitX=0.25;exitY=1;exitDx=0;exitDy=0;entryX=0.5;entryY=0;entryDx=0;entryDy=0;fontSize=20;" edge="1" parent="SedPjR7rAk7AIs8v2ia8-53" source="SedPjR7rAk7AIs8v2ia8-4" target="SedPjR7rAk7AIs8v2ia8-6">
          <mxGeometry relative="1" as="geometry" />
        </mxCell>
        <mxCell id="SedPjR7rAk7AIs8v2ia8-9" value="-0.176" style="text;whiteSpace=wrap;html=1;fontColor=#333333;fontStyle=0;fontSize=16;fillColor=#f5f5f5;strokeColor=#666666;align=center;verticalAlign=middle;" vertex="1" parent="SedPjR7rAk7AIs8v2ia8-53">
          <mxGeometry x="190" y="200" width="80" height="40" as="geometry" />
        </mxCell>
        <mxCell id="SedPjR7rAk7AIs8v2ia8-13" value="No" style="edgeStyle=none;rounded=0;orthogonalLoop=1;jettySize=auto;html=1;exitX=0.75;exitY=1;exitDx=0;exitDy=0;entryX=0.5;entryY=0;entryDx=0;entryDy=0;fontSize=20;" edge="1" parent="SedPjR7rAk7AIs8v2ia8-53" source="SedPjR7rAk7AIs8v2ia8-6" target="SedPjR7rAk7AIs8v2ia8-9">
          <mxGeometry relative="1" as="geometry" />
        </mxCell>
        <mxCell id="SedPjR7rAk7AIs8v2ia8-12" value="&lt;span style=&quot;color: rgb(0 , 0 , 0) ; font-family: &amp;#34;helvetica&amp;#34; ; font-size: 16px ; font-style: normal ; letter-spacing: normal ; text-indent: 0px ; text-transform: none ; word-spacing: 0px ; background-color: rgb(248 , 249 , 250) ; display: inline ; float: none&quot;&gt;Arrow&lt;/span&gt;" style="text;whiteSpace=wrap;html=1;fontColor=#333333;fontStyle=0;fontSize=16;fillColor=#f5f5f5;strokeColor=#666666;align=center;verticalAlign=middle;" vertex="1" parent="SedPjR7rAk7AIs8v2ia8-53">
          <mxGeometry x="60" y="200" width="120" height="40" as="geometry" />
        </mxCell>
        <mxCell id="SedPjR7rAk7AIs8v2ia8-10" value="Yes" style="edgeStyle=none;rounded=0;orthogonalLoop=1;jettySize=auto;html=1;exitX=0.25;exitY=1;exitDx=0;exitDy=0;entryX=0.5;entryY=0;entryDx=0;entryDy=0;fontSize=20;" edge="1" parent="SedPjR7rAk7AIs8v2ia8-53" source="SedPjR7rAk7AIs8v2ia8-6" target="SedPjR7rAk7AIs8v2ia8-12">
          <mxGeometry relative="1" as="geometry" />
        </mxCell>
        <mxCell id="SedPjR7rAk7AIs8v2ia8-14" value="&lt;span style=&quot;color: rgb(0 , 0 , 0) ; font-family: &amp;#34;helvetica&amp;#34; ; text-align: left&quot;&gt;Multi-page Slider&lt;/span&gt;" style="text;whiteSpace=wrap;html=1;fontColor=#333333;fontStyle=0;fontSize=16;fillColor=#f5f5f5;strokeColor=#666666;align=center;verticalAlign=middle;" vertex="1" parent="SedPjR7rAk7AIs8v2ia8-53">
          <mxGeometry x="90" y="300" width="120" height="40" as="geometry" />
        </mxCell>
        <mxCell id="SedPjR7rAk7AIs8v2ia8-15" value="No" style="edgeStyle=none;rounded=0;orthogonalLoop=1;jettySize=auto;html=1;exitX=0.75;exitY=1;exitDx=0;exitDy=0;entryX=0.5;entryY=0;entryDx=0;entryDy=0;fontSize=20;" edge="1" parent="SedPjR7rAk7AIs8v2ia8-53" source="SedPjR7rAk7AIs8v2ia8-12" target="SedPjR7rAk7AIs8v2ia8-14">
          <mxGeometry relative="1" as="geometry" />
        </mxCell>
        <mxCell id="SedPjR7rAk7AIs8v2ia8-16" value="0.147" style="text;whiteSpace=wrap;html=1;fontColor=#333333;fontStyle=0;fontSize=16;fillColor=#f5f5f5;strokeColor=#666666;align=center;verticalAlign=middle;" vertex="1" parent="SedPjR7rAk7AIs8v2ia8-53">
          <mxGeometry y="300" width="80" height="40" as="geometry" />
        </mxCell>
        <mxCell id="SedPjR7rAk7AIs8v2ia8-17" value="Yes" style="edgeStyle=none;rounded=0;orthogonalLoop=1;jettySize=auto;html=1;exitX=0.25;exitY=1;exitDx=0;exitDy=0;entryX=0.5;entryY=0;entryDx=0;entryDy=0;fontSize=20;" edge="1" parent="SedPjR7rAk7AIs8v2ia8-53" source="SedPjR7rAk7AIs8v2ia8-12" target="SedPjR7rAk7AIs8v2ia8-16">
          <mxGeometry relative="1" as="geometry" />
        </mxCell>
        <mxCell id="SedPjR7rAk7AIs8v2ia8-18" value="0.072" style="text;whiteSpace=wrap;html=1;fontColor=#333333;fontStyle=0;fontSize=16;fillColor=#f5f5f5;strokeColor=#666666;align=center;verticalAlign=middle;" vertex="1" parent="SedPjR7rAk7AIs8v2ia8-53">
          <mxGeometry x="30" y="400" width="80" height="40" as="geometry" />
        </mxCell>
        <mxCell id="SedPjR7rAk7AIs8v2ia8-19" value="Yes" style="edgeStyle=none;rounded=0;orthogonalLoop=1;jettySize=auto;html=1;exitX=0.25;exitY=1;exitDx=0;exitDy=0;entryX=0.5;entryY=0;entryDx=0;entryDy=0;fontSize=20;" edge="1" parent="SedPjR7rAk7AIs8v2ia8-53" source="SedPjR7rAk7AIs8v2ia8-14" target="SedPjR7rAk7AIs8v2ia8-18">
          <mxGeometry relative="1" as="geometry" />
        </mxCell>
        <mxCell id="SedPjR7rAk7AIs8v2ia8-20" value="&lt;span style=&quot;color: rgb(0 , 0 , 0) ; font-family: &amp;#34;helvetica&amp;#34; ; text-align: left&quot;&gt;Stage Transition Button&lt;/span&gt;" style="text;whiteSpace=wrap;html=1;fontColor=#333333;fontStyle=0;fontSize=16;fillColor=#f5f5f5;strokeColor=#666666;align=center;verticalAlign=middle;" vertex="1" parent="SedPjR7rAk7AIs8v2ia8-53">
          <mxGeometry x="120" y="400" width="120" height="40" as="geometry" />
        </mxCell>
        <mxCell id="SedPjR7rAk7AIs8v2ia8-21" value="No" style="edgeStyle=none;rounded=0;orthogonalLoop=1;jettySize=auto;html=1;exitX=0.75;exitY=1;exitDx=0;exitDy=0;entryX=0.5;entryY=0;entryDx=0;entryDy=0;fontSize=20;" edge="1" parent="SedPjR7rAk7AIs8v2ia8-53" source="SedPjR7rAk7AIs8v2ia8-14" target="SedPjR7rAk7AIs8v2ia8-20">
          <mxGeometry relative="1" as="geometry" />
        </mxCell>
        <mxCell id="SedPjR7rAk7AIs8v2ia8-22" value="-0.06" style="text;whiteSpace=wrap;html=1;fontColor=#333333;fontStyle=0;fontSize=16;fillColor=#f5f5f5;strokeColor=#666666;align=center;verticalAlign=middle;" vertex="1" parent="SedPjR7rAk7AIs8v2ia8-53">
          <mxGeometry x="60" y="500" width="80" height="40" as="geometry" />
        </mxCell>
        <mxCell id="SedPjR7rAk7AIs8v2ia8-23" value="Yes" style="edgeStyle=none;rounded=0;orthogonalLoop=1;jettySize=auto;html=1;exitX=0.25;exitY=1;exitDx=0;exitDy=0;entryX=0.5;entryY=0;entryDx=0;entryDy=0;fontSize=20;" edge="1" parent="SedPjR7rAk7AIs8v2ia8-53" source="SedPjR7rAk7AIs8v2ia8-20" target="SedPjR7rAk7AIs8v2ia8-22">
          <mxGeometry relative="1" as="geometry" />
        </mxCell>
        <mxCell id="SedPjR7rAk7AIs8v2ia8-24" value="&lt;span style=&quot;color: rgb(0 , 0 , 0) ; font-family: &amp;#34;helvetica&amp;#34; ; text-align: left&quot;&gt;Confirmation Button&lt;/span&gt;" style="text;whiteSpace=wrap;html=1;fontColor=#333333;fontStyle=0;fontSize=16;fillColor=#f5f5f5;strokeColor=#666666;align=center;verticalAlign=middle;" vertex="1" parent="SedPjR7rAk7AIs8v2ia8-53">
          <mxGeometry x="150" y="500" width="120" height="40" as="geometry" />
        </mxCell>
        <mxCell id="SedPjR7rAk7AIs8v2ia8-25" value="No" style="edgeStyle=none;rounded=0;orthogonalLoop=1;jettySize=auto;html=1;exitX=0.75;exitY=1;exitDx=0;exitDy=0;entryX=0.5;entryY=0;entryDx=0;entryDy=0;fontSize=20;" edge="1" parent="SedPjR7rAk7AIs8v2ia8-53" source="SedPjR7rAk7AIs8v2ia8-20" target="SedPjR7rAk7AIs8v2ia8-24">
          <mxGeometry relative="1" as="geometry" />
        </mxCell>
        <mxCell id="SedPjR7rAk7AIs8v2ia8-26" value="0.008" style="text;whiteSpace=wrap;html=1;fontColor=#333333;fontStyle=0;fontSize=16;fillColor=#f5f5f5;strokeColor=#666666;align=center;verticalAlign=middle;" vertex="1" parent="SedPjR7rAk7AIs8v2ia8-53">
          <mxGeometry x="110" y="600" width="80" height="40" as="geometry" />
        </mxCell>
        <mxCell id="SedPjR7rAk7AIs8v2ia8-27" value="Yes" style="edgeStyle=none;rounded=0;orthogonalLoop=1;jettySize=auto;html=1;exitX=0.25;exitY=1;exitDx=0;exitDy=0;entryX=0.5;entryY=0;entryDx=0;entryDy=0;fontSize=20;" edge="1" parent="SedPjR7rAk7AIs8v2ia8-53" source="SedPjR7rAk7AIs8v2ia8-24" target="SedPjR7rAk7AIs8v2ia8-26">
          <mxGeometry relative="1" as="geometry" />
        </mxCell>
        <mxCell id="SedPjR7rAk7AIs8v2ia8-29" value="-0.036" style="text;whiteSpace=wrap;html=1;fontColor=#333333;fontStyle=0;fontSize=16;fillColor=#f5f5f5;strokeColor=#666666;align=center;verticalAlign=middle;" vertex="1" parent="SedPjR7rAk7AIs8v2ia8-53">
          <mxGeometry x="200" y="600" width="80" height="40" as="geometry" />
        </mxCell>
        <mxCell id="SedPjR7rAk7AIs8v2ia8-30" value="No" style="edgeStyle=none;rounded=0;orthogonalLoop=1;jettySize=auto;html=1;exitX=0.75;exitY=1;exitDx=0;exitDy=0;entryX=0.5;entryY=0;entryDx=0;entryDy=0;fontSize=20;" edge="1" parent="SedPjR7rAk7AIs8v2ia8-53" source="SedPjR7rAk7AIs8v2ia8-24" target="SedPjR7rAk7AIs8v2ia8-29">
          <mxGeometry relative="1" as="geometry" />
        </mxCell>
        <mxCell id="SedPjR7rAk7AIs8v2ia8-31" value="&lt;span style=&quot;color: rgb(0 , 0 , 0) ; font-family: &amp;quot;helvetica&amp;quot; ; font-size: 16px ; font-style: normal ; letter-spacing: normal ; text-indent: 0px ; text-transform: none ; word-spacing: 0px ; background-color: rgb(248 , 249 , 250) ; display: inline ; float: none&quot;&gt;Demo Animation/Video&lt;/span&gt;" style="text;whiteSpace=wrap;html=1;fontColor=#333333;fontStyle=0;fontSize=16;fillColor=#f5f5f5;strokeColor=#666666;align=center;verticalAlign=middle;" vertex="1" parent="SedPjR7rAk7AIs8v2ia8-53">
          <mxGeometry x="280" y="200" width="120" height="40" as="geometry" />
        </mxCell>
        <mxCell id="SedPjR7rAk7AIs8v2ia8-32" value="Yes" style="edgeStyle=none;rounded=0;orthogonalLoop=1;jettySize=auto;html=1;exitX=0.25;exitY=1;exitDx=0;exitDy=0;entryX=0.5;entryY=0;entryDx=0;entryDy=0;fontSize=20;" edge="1" parent="SedPjR7rAk7AIs8v2ia8-53" source="SedPjR7rAk7AIs8v2ia8-5" target="SedPjR7rAk7AIs8v2ia8-31">
          <mxGeometry relative="1" as="geometry" />
        </mxCell>
        <mxCell id="SedPjR7rAk7AIs8v2ia8-34" value="-0.062" style="text;whiteSpace=wrap;html=1;fontColor=#333333;fontStyle=0;fontSize=16;fillColor=#f5f5f5;strokeColor=#666666;align=center;verticalAlign=middle;" vertex="1" parent="SedPjR7rAk7AIs8v2ia8-53">
          <mxGeometry x="240" y="300" width="80" height="40" as="geometry" />
        </mxCell>
        <mxCell id="SedPjR7rAk7AIs8v2ia8-35" value="Yes" style="edgeStyle=none;rounded=0;orthogonalLoop=1;jettySize=auto;html=1;exitX=0.25;exitY=1;exitDx=0;exitDy=0;entryX=0.5;entryY=0;entryDx=0;entryDy=0;fontSize=20;" edge="1" parent="SedPjR7rAk7AIs8v2ia8-53" source="SedPjR7rAk7AIs8v2ia8-31" target="SedPjR7rAk7AIs8v2ia8-34">
          <mxGeometry relative="1" as="geometry" />
        </mxCell>
        <mxCell id="SedPjR7rAk7AIs8v2ia8-36" value="-0.663" style="text;whiteSpace=wrap;html=1;fontColor=#333333;fontStyle=0;fontSize=16;fillColor=#f5f5f5;strokeColor=#666666;align=center;verticalAlign=middle;" vertex="1" parent="SedPjR7rAk7AIs8v2ia8-53">
          <mxGeometry x="330" y="300" width="80" height="40" as="geometry" />
        </mxCell>
        <mxCell id="SedPjR7rAk7AIs8v2ia8-37" value="No" style="edgeStyle=none;rounded=0;orthogonalLoop=1;jettySize=auto;html=1;exitX=0.75;exitY=1;exitDx=0;exitDy=0;entryX=0.5;entryY=0;entryDx=0;entryDy=0;fontSize=20;" edge="1" parent="SedPjR7rAk7AIs8v2ia8-53" source="SedPjR7rAk7AIs8v2ia8-31" target="SedPjR7rAk7AIs8v2ia8-36">
          <mxGeometry relative="1" as="geometry" />
        </mxCell>
        <mxCell id="SedPjR7rAk7AIs8v2ia8-38" value="&lt;span style=&quot;color: rgb(0 , 0 , 0) ; font-family: &amp;#34;helvetica&amp;#34; ; font-size: 16px ; font-style: normal ; letter-spacing: normal ; text-indent: 0px ; text-transform: none ; word-spacing: 0px ; background-color: rgb(248 , 249 , 250) ; display: inline ; float: none&quot;&gt;Highlight&lt;/span&gt;" style="text;whiteSpace=wrap;html=1;fontColor=#333333;fontStyle=0;fontSize=16;fillColor=#f5f5f5;strokeColor=#666666;align=center;verticalAlign=middle;" vertex="1" parent="SedPjR7rAk7AIs8v2ia8-53">
          <mxGeometry x="450" y="200" width="120" height="40" as="geometry" />
        </mxCell>
        <mxCell id="SedPjR7rAk7AIs8v2ia8-39" value="No" style="edgeStyle=none;rounded=0;orthogonalLoop=1;jettySize=auto;html=1;exitX=0.75;exitY=1;exitDx=0;exitDy=0;entryX=0.5;entryY=0;entryDx=0;entryDy=0;fontSize=20;" edge="1" parent="SedPjR7rAk7AIs8v2ia8-53" source="SedPjR7rAk7AIs8v2ia8-5" target="SedPjR7rAk7AIs8v2ia8-38">
          <mxGeometry relative="1" as="geometry" />
        </mxCell>
        <mxCell id="SedPjR7rAk7AIs8v2ia8-41" value="&lt;span style=&quot;color: rgb(0 , 0 , 0) ; font-family: &amp;#34;helvetica&amp;#34; ; text-align: left&quot;&gt;Text&lt;/span&gt;" style="text;whiteSpace=wrap;html=1;fontColor=#333333;fontStyle=0;fontSize=16;fillColor=#f5f5f5;strokeColor=#666666;align=center;verticalAlign=middle;" vertex="1" parent="SedPjR7rAk7AIs8v2ia8-53">
          <mxGeometry x="420" y="300" width="120" height="40" as="geometry" />
        </mxCell>
        <mxCell id="SedPjR7rAk7AIs8v2ia8-42" value="Yes" style="edgeStyle=none;rounded=0;orthogonalLoop=1;jettySize=auto;html=1;exitX=0.25;exitY=1;exitDx=0;exitDy=0;entryX=0.5;entryY=0;entryDx=0;entryDy=0;fontSize=20;" edge="1" parent="SedPjR7rAk7AIs8v2ia8-53" source="SedPjR7rAk7AIs8v2ia8-38" target="SedPjR7rAk7AIs8v2ia8-41">
          <mxGeometry relative="1" as="geometry" />
        </mxCell>
        <mxCell id="SedPjR7rAk7AIs8v2ia8-43" value="-0.088" style="text;whiteSpace=wrap;html=1;fontColor=#333333;fontStyle=0;fontSize=16;fillColor=#f5f5f5;strokeColor=#666666;align=center;verticalAlign=middle;" vertex="1" parent="SedPjR7rAk7AIs8v2ia8-53">
          <mxGeometry x="370" y="400" width="80" height="40" as="geometry" />
        </mxCell>
        <mxCell id="SedPjR7rAk7AIs8v2ia8-44" value="Yes" style="edgeStyle=none;rounded=0;orthogonalLoop=1;jettySize=auto;html=1;exitX=0.25;exitY=1;exitDx=0;exitDy=0;entryX=0.5;entryY=0;entryDx=0;entryDy=0;fontSize=20;" edge="1" parent="SedPjR7rAk7AIs8v2ia8-53" source="SedPjR7rAk7AIs8v2ia8-41" target="SedPjR7rAk7AIs8v2ia8-43">
          <mxGeometry relative="1" as="geometry" />
        </mxCell>
        <mxCell id="SedPjR7rAk7AIs8v2ia8-45" value="-0.196" style="text;whiteSpace=wrap;html=1;fontColor=#333333;fontStyle=0;fontSize=16;fillColor=#f5f5f5;strokeColor=#666666;align=center;verticalAlign=middle;" vertex="1" parent="SedPjR7rAk7AIs8v2ia8-53">
          <mxGeometry x="470" y="400" width="80" height="40" as="geometry" />
        </mxCell>
        <mxCell id="SedPjR7rAk7AIs8v2ia8-46" value="No" style="edgeStyle=none;rounded=0;orthogonalLoop=1;jettySize=auto;html=1;exitX=0.75;exitY=1;exitDx=0;exitDy=0;entryX=0.5;entryY=0;entryDx=0;entryDy=0;fontSize=20;" edge="1" parent="SedPjR7rAk7AIs8v2ia8-53" source="SedPjR7rAk7AIs8v2ia8-41" target="SedPjR7rAk7AIs8v2ia8-45">
          <mxGeometry relative="1" as="geometry" />
        </mxCell>
        <mxCell id="SedPjR7rAk7AIs8v2ia8-47" value="&lt;span style=&quot;color: rgb(0 , 0 , 0) ; font-family: &amp;quot;helvetica&amp;quot; ; font-size: 16px ; font-style: normal ; letter-spacing: normal ; text-indent: 0px ; text-transform: none ; word-spacing: 0px ; background-color: rgb(248 , 249 , 250) ; display: inline ; float: none&quot;&gt;Demo Animation/Video&lt;/span&gt;" style="text;whiteSpace=wrap;html=1;fontColor=#333333;fontStyle=0;fontSize=16;fillColor=#f5f5f5;strokeColor=#666666;align=center;verticalAlign=middle;" vertex="1" parent="SedPjR7rAk7AIs8v2ia8-53">
          <mxGeometry x="570" y="300" width="120" height="40" as="geometry" />
        </mxCell>
        <mxCell id="SedPjR7rAk7AIs8v2ia8-48" style="edgeStyle=none;rounded=0;orthogonalLoop=1;jettySize=auto;html=1;exitX=0.75;exitY=1;exitDx=0;exitDy=0;entryX=0.5;entryY=0;entryDx=0;entryDy=0;fontSize=20;" edge="1" parent="SedPjR7rAk7AIs8v2ia8-53" source="SedPjR7rAk7AIs8v2ia8-38" target="SedPjR7rAk7AIs8v2ia8-47">
          <mxGeometry relative="1" as="geometry" />
        </mxCell>
        <mxCell id="SedPjR7rAk7AIs8v2ia8-49" value="-0.143" style="text;whiteSpace=wrap;html=1;fontColor=#333333;fontStyle=0;fontSize=16;fillColor=#f5f5f5;strokeColor=#666666;align=center;verticalAlign=middle;" vertex="1" parent="SedPjR7rAk7AIs8v2ia8-53">
          <mxGeometry x="560" y="400" width="80" height="40" as="geometry" />
        </mxCell>
        <mxCell id="SedPjR7rAk7AIs8v2ia8-50" value="Yes" style="edgeStyle=none;rounded=0;orthogonalLoop=1;jettySize=auto;html=1;exitX=0.25;exitY=1;exitDx=0;exitDy=0;entryX=0.5;entryY=0;entryDx=0;entryDy=0;fontSize=20;" edge="1" parent="SedPjR7rAk7AIs8v2ia8-53" source="SedPjR7rAk7AIs8v2ia8-47" target="SedPjR7rAk7AIs8v2ia8-49">
          <mxGeometry relative="1" as="geometry" />
        </mxCell>
        <mxCell id="SedPjR7rAk7AIs8v2ia8-51" value="-0.205" style="text;whiteSpace=wrap;html=1;fontColor=#333333;fontStyle=0;fontSize=16;fillColor=#f5f5f5;strokeColor=#666666;align=center;verticalAlign=middle;" vertex="1" parent="SedPjR7rAk7AIs8v2ia8-53">
          <mxGeometry x="650" y="400" width="80" height="40" as="geometry" />
        </mxCell>
        <mxCell id="SedPjR7rAk7AIs8v2ia8-52" style="edgeStyle=none;rounded=0;orthogonalLoop=1;jettySize=auto;html=1;exitX=0.75;exitY=1;exitDx=0;exitDy=0;entryX=0.5;entryY=0;entryDx=0;entryDy=0;fontSize=20;" edge="1" parent="SedPjR7rAk7AIs8v2ia8-53" source="SedPjR7rAk7AIs8v2ia8-47" target="SedPjR7rAk7AIs8v2ia8-51">
          <mxGeometry relative="1" as="geometry" />
        </mxCell>
        <mxCell id="SedPjR7rAk7AIs8v2ia8-55" value="1. UI Size,&lt;br&gt;2. Edge Density, &lt;br&gt;3. Dominant Colour Depth,&lt;br&gt;4. Dominant Colour Contrast, &lt;br&gt;5. Colour Variability,&lt;br&gt;6. Visual Complexity" style="text;html=1;align=left;verticalAlign=middle;resizable=0;points=[];autosize=1;fontSize=20;" vertex="1" parent="1">
          <mxGeometry x="-1035" y="1625" width="270" height="150" as="geometry" />
        </mxCell>
        <mxCell id="SedPjR7rAk7AIs8v2ia8-61" value="No" style="edgeStyle=none;rounded=0;orthogonalLoop=1;jettySize=auto;html=1;exitX=0.75;exitY=1;exitDx=0;exitDy=0;entryX=0.5;entryY=0;entryDx=0;entryDy=0;fontSize=20;" edge="1" parent="1" source="SedPjR7rAk7AIs8v2ia8-56" target="SedPjR7rAk7AIs8v2ia8-59">
          <mxGeometry relative="1" as="geometry" />
        </mxCell>
        <mxCell id="SedPjR7rAk7AIs8v2ia8-56" value="&lt;span style=&quot;color: rgb(0 , 0 , 0) ; font-family: &amp;#34;helvetica&amp;#34; ; font-size: 16px ; font-style: normal ; letter-spacing: normal ; text-indent: 0px ; text-transform: none ; word-spacing: 0px ; background-color: rgb(248 , 249 , 250) ; display: inline ; float: none&quot;&gt;UI Size&amp;lt;0.399&lt;/span&gt;" style="text;whiteSpace=wrap;html=1;fontColor=#333333;fontStyle=0;fontSize=16;fillColor=#f5f5f5;strokeColor=#666666;align=center;verticalAlign=middle;" vertex="1" parent="1">
          <mxGeometry x="-1140" y="1790" width="120" height="40" as="geometry" />
        </mxCell>
        <mxCell id="SedPjR7rAk7AIs8v2ia8-57" value="&lt;span style=&quot;color: rgb(0 , 0 , 0) ; font-family: &amp;#34;helvetica&amp;#34; ; font-size: 16px ; font-style: normal ; letter-spacing: normal ; text-indent: 0px ; text-transform: none ; word-spacing: 0px ; background-color: rgb(248 , 249 , 250) ; display: inline ; float: none&quot;&gt;Edge Density&lt;/span&gt;" style="text;whiteSpace=wrap;html=1;fontColor=#333333;fontStyle=0;fontSize=16;fillColor=#f5f5f5;strokeColor=#666666;align=center;verticalAlign=middle;" vertex="1" parent="1">
          <mxGeometry x="-1180" y="1570" width="120" height="40" as="geometry" />
        </mxCell>
        <mxCell id="SedPjR7rAk7AIs8v2ia8-58" value="&lt;span style=&quot;color: rgb(0 , 0 , 0) ; font-family: &amp;#34;helvetica&amp;#34; ; font-size: 16px ; font-style: normal ; letter-spacing: normal ; text-indent: 0px ; text-transform: none ; word-spacing: 0px ; background-color: rgb(248 , 249 , 250) ; display: inline ; float: none&quot;&gt;UI Size&lt;/span&gt;" style="text;whiteSpace=wrap;html=1;fontColor=#333333;fontStyle=0;fontSize=16;fillColor=#f5f5f5;strokeColor=#666666;align=center;verticalAlign=middle;" vertex="1" parent="1">
          <mxGeometry x="455" y="2020" width="120" height="40" as="geometry" />
        </mxCell>
        <mxCell id="SedPjR7rAk7AIs8v2ia8-59" value="&lt;span style=&quot;color: rgb(0 , 0 , 0) ; font-family: &amp;#34;helvetica&amp;#34; ; font-size: 16px ; font-style: normal ; letter-spacing: normal ; text-indent: 0px ; text-transform: none ; word-spacing: 0px ; background-color: rgb(248 , 249 , 250) ; display: inline ; float: none&quot;&gt;UI Size&amp;lt;0.455&lt;/span&gt;" style="text;whiteSpace=wrap;html=1;fontColor=#333333;fontStyle=0;fontSize=16;fillColor=#f5f5f5;strokeColor=#666666;align=center;verticalAlign=middle;" vertex="1" parent="1">
          <mxGeometry x="-990" y="1940" width="120" height="40" as="geometry" />
        </mxCell>
        <mxCell id="SedPjR7rAk7AIs8v2ia8-63" value="&lt;span style=&quot;color: rgb(0 , 0 , 0) ; font-family: &amp;#34;helvetica&amp;#34; ; font-size: 16px ; font-style: normal ; letter-spacing: normal ; text-indent: 0px ; text-transform: none ; word-spacing: 0px ; background-color: rgb(248 , 249 , 250) ; display: inline ; float: none&quot;&gt;Colour Contrast&lt;/span&gt;" style="text;whiteSpace=wrap;html=1;fontColor=#333333;fontStyle=0;fontSize=16;fillColor=#f5f5f5;strokeColor=#666666;align=center;verticalAlign=middle;" vertex="1" parent="1">
          <mxGeometry x="460" y="2150" width="120" height="40" as="geometry" />
        </mxCell>
        <mxCell id="SedPjR7rAk7AIs8v2ia8-64" value="&lt;span style=&quot;color: rgb(0 , 0 , 0) ; font-family: &amp;#34;helvetica&amp;#34; ; font-size: 16px ; font-style: normal ; letter-spacing: normal ; text-indent: 0px ; text-transform: none ; word-spacing: 0px ; background-color: rgb(248 , 249 , 250) ; display: inline ; float: none&quot;&gt;Colour Depth&lt;/span&gt;" style="text;whiteSpace=wrap;html=1;fontColor=#333333;fontStyle=0;fontSize=16;fillColor=#f5f5f5;strokeColor=#666666;align=center;verticalAlign=middle;" vertex="1" parent="1">
          <mxGeometry x="-730" y="1900" width="120" height="40" as="geometry" />
        </mxCell>
        <mxCell id="SedPjR7rAk7AIs8v2ia8-66" value="&lt;br&gt;&lt;table border=&quot;0&quot; cellpadding=&quot;0&quot; cellspacing=&quot;0&quot; width=&quot;128&quot; style=&quot;border-collapse: collapse ; width: 96pt&quot;&gt; &lt;colgroup&gt;&lt;col width=&quot;64&quot; span=&quot;2&quot; style=&quot;width: 48pt&quot;&gt;&lt;/colgroup&gt; &lt;tbody&gt;&lt;tr style=&quot;height: 15.75pt&quot;&gt;  &lt;td height=&quot;21&quot; align=&quot;right&quot; width=&quot;64&quot; style=&quot;height: 15.75pt ; width: 48pt&quot;&gt;1&lt;/td&gt;  &lt;td width=&quot;64&quot; style=&quot;width: 48pt&quot;&gt;Multi-page Slider&lt;/td&gt; &lt;/tr&gt; &lt;tr style=&quot;height: 15.75pt&quot;&gt;  &lt;td height=&quot;21&quot; align=&quot;right&quot; style=&quot;height: 15.75pt&quot;&gt;2&lt;/td&gt;  &lt;td&gt;UI: Text&lt;/td&gt; &lt;/tr&gt; &lt;tr style=&quot;height: 15.75pt&quot;&gt;  &lt;td height=&quot;21&quot; align=&quot;right&quot; style=&quot;height: 15.75pt&quot;&gt;3&lt;/td&gt;  &lt;td&gt;UI: Talking box/Text box&lt;/td&gt; &lt;/tr&gt; &lt;tr style=&quot;height: 15.75pt&quot;&gt;  &lt;td height=&quot;21&quot; align=&quot;right&quot; style=&quot;height: 15.75pt&quot;&gt;4&lt;/td&gt;  &lt;td&gt;UI: Stage Transition Button&lt;/td&gt; &lt;/tr&gt; &lt;tr style=&quot;height: 15.75pt&quot;&gt;  &lt;td height=&quot;21&quot; align=&quot;right&quot; style=&quot;height: 15.75pt&quot;&gt;5&lt;/td&gt;  &lt;td&gt;UI: Confirmation Button&lt;/td&gt; &lt;/tr&gt; &lt;tr style=&quot;height: 15.75pt&quot;&gt;  &lt;td height=&quot;21&quot; align=&quot;right&quot; style=&quot;height: 15.75pt&quot;&gt;6&lt;/td&gt;  &lt;td&gt;UI: Highlight&lt;/td&gt; &lt;/tr&gt; &lt;tr style=&quot;height: 15.75pt&quot;&gt;  &lt;td height=&quot;21&quot; align=&quot;right&quot; style=&quot;height: 15.75pt&quot;&gt;7&lt;/td&gt;  &lt;td&gt;UI: Mask&lt;/td&gt; &lt;/tr&gt; &lt;tr style=&quot;height: 15.75pt&quot;&gt;  &lt;td height=&quot;21&quot; align=&quot;right&quot; style=&quot;height: 15.75pt&quot;&gt;8&lt;/td&gt;  &lt;td&gt;UI: Arrow&lt;/td&gt; &lt;/tr&gt; &lt;tr style=&quot;height: 15.75pt&quot;&gt;  &lt;td height=&quot;21&quot; align=&quot;right&quot; style=&quot;height: 15.75pt&quot;&gt;9&lt;/td&gt;  &lt;td&gt;UI: Virtual Hand&lt;/td&gt; &lt;/tr&gt; &lt;tr style=&quot;height: 15.75pt&quot;&gt;  &lt;td height=&quot;21&quot; align=&quot;right&quot; style=&quot;height: 15.75pt&quot;&gt;10&lt;/td&gt;  &lt;td&gt;UI: Demo Animation/Video&lt;/td&gt; &lt;/tr&gt; &lt;tr style=&quot;height: 15.75pt&quot;&gt;  &lt;td height=&quot;21&quot; align=&quot;right&quot; style=&quot;height: 15.75pt&quot;&gt;11&lt;/td&gt;  &lt;td&gt;UI:StaticImage&lt;/td&gt; &lt;/tr&gt; &lt;tr style=&quot;height: 15.75pt&quot;&gt;  &lt;td height=&quot;21&quot; align=&quot;right&quot; style=&quot;height: 15.75pt&quot;&gt;12&lt;/td&gt;  &lt;td&gt;Top Word: tap&lt;/td&gt; &lt;/tr&gt; &lt;tr style=&quot;height: 15.75pt&quot;&gt;  &lt;td height=&quot;21&quot; align=&quot;right&quot; style=&quot;height: 15.75pt&quot;&gt;13&lt;/td&gt;  &lt;td&gt;Top Word: see&lt;/td&gt; &lt;/tr&gt; &lt;tr style=&quot;height: 15.75pt&quot;&gt;  &lt;td height=&quot;21&quot; align=&quot;right&quot; style=&quot;height: 15.75pt&quot;&gt;14&lt;/td&gt;  &lt;td&gt;Top Word: use&lt;/td&gt; &lt;/tr&gt; &lt;tr style=&quot;height: 15.75pt&quot;&gt;  &lt;td height=&quot;21&quot; align=&quot;right&quot; style=&quot;height: 15.75pt&quot;&gt;15&lt;/td&gt;  &lt;td&gt;Top Word: text&lt;/td&gt; &lt;/tr&gt; &lt;tr style=&quot;height: 15.75pt&quot;&gt;  &lt;td height=&quot;21&quot; align=&quot;right&quot; style=&quot;height: 15.75pt&quot;&gt;16&lt;/td&gt;  &lt;td&gt;Top Word: next&lt;/td&gt; &lt;/tr&gt; &lt;tr style=&quot;height: 15.75pt&quot;&gt;  &lt;td height=&quot;21&quot; align=&quot;right&quot; style=&quot;height: 15.75pt&quot;&gt;17&lt;/td&gt;  &lt;td&gt;Top Word: find&lt;/td&gt; &lt;/tr&gt; &lt;tr style=&quot;height: 15.75pt&quot;&gt;  &lt;td height=&quot;21&quot; align=&quot;right&quot; style=&quot;height: 15.75pt&quot;&gt;18&lt;/td&gt;  &lt;td&gt;Top Word: view&lt;/td&gt; &lt;/tr&gt; &lt;tr style=&quot;height: 15.75pt&quot;&gt;  &lt;td height=&quot;21&quot; align=&quot;right&quot; style=&quot;height: 15.75pt&quot;&gt;19&lt;/td&gt;  &lt;td&gt;Top Word: add&lt;/td&gt; &lt;/tr&gt; &lt;tr style=&quot;height: 15.75pt&quot;&gt;  &lt;td height=&quot;21&quot; align=&quot;right&quot; style=&quot;height: 15.75pt&quot;&gt;20&lt;/td&gt;  &lt;td&gt;Top Word: select&lt;/td&gt; &lt;/tr&gt; &lt;tr style=&quot;height: 15.75pt&quot;&gt;  &lt;td height=&quot;21&quot; align=&quot;right&quot; style=&quot;height: 15.75pt&quot;&gt;21&lt;/td&gt;  &lt;td&gt;Top Word: move&lt;/td&gt; &lt;/tr&gt; &lt;tr style=&quot;height: 15.75pt&quot;&gt;  &lt;td height=&quot;21&quot; align=&quot;right&quot; style=&quot;height: 15.75pt&quot;&gt;22&lt;/td&gt;  &lt;td&gt;Top Word: new&lt;/td&gt; &lt;/tr&gt; &lt;tr style=&quot;height: 15.75pt&quot;&gt;  &lt;td height=&quot;21&quot; align=&quot;right&quot; style=&quot;height: 15.75pt&quot;&gt;23&lt;/td&gt;  &lt;td&gt;Top Word: red&lt;/td&gt; &lt;/tr&gt; &lt;tr style=&quot;height: 15.75pt&quot;&gt;  &lt;td height=&quot;21&quot; align=&quot;right&quot; style=&quot;height: 15.75pt&quot;&gt;24&lt;/td&gt;  &lt;td&gt;Top Word: click&lt;/td&gt; &lt;/tr&gt; &lt;tr style=&quot;height: 15.75pt&quot;&gt;  &lt;td height=&quot;21&quot; align=&quot;right&quot; style=&quot;height: 15.75pt&quot;&gt;25&lt;/td&gt;  &lt;td&gt;Top Word: like&lt;/td&gt; &lt;/tr&gt; &lt;tr style=&quot;height: 15.75pt&quot;&gt;  &lt;td height=&quot;21&quot; align=&quot;right&quot; style=&quot;height: 15.75pt&quot;&gt;26&lt;/td&gt;  &lt;td&gt;Top Word: start&lt;/td&gt; &lt;/tr&gt; &lt;tr style=&quot;height: 15.75pt&quot;&gt;  &lt;td height=&quot;21&quot; align=&quot;right&quot; style=&quot;height: 15.75pt&quot;&gt;27&lt;/td&gt;  &lt;td&gt;Top Word: button&lt;/td&gt; &lt;/tr&gt; &lt;tr style=&quot;height: 15.75pt&quot;&gt;  &lt;td height=&quot;21&quot; align=&quot;right&quot; style=&quot;height: 15.75pt&quot;&gt;28&lt;/td&gt;  &lt;td&gt;Top Word: drag&lt;/td&gt; &lt;/tr&gt; &lt;tr style=&quot;height: 15.75pt&quot;&gt;  &lt;td height=&quot;21&quot; align=&quot;right&quot; style=&quot;height: 15.75pt&quot;&gt;29&lt;/td&gt;  &lt;td&gt;Top Word: get&lt;/td&gt; &lt;/tr&gt; &lt;tr style=&quot;height: 15.75pt&quot;&gt;  &lt;td height=&quot;21&quot; align=&quot;right&quot; style=&quot;height: 15.75pt&quot;&gt;30&lt;/td&gt;  &lt;td&gt;Top Word: please&lt;/td&gt; &lt;/tr&gt; &lt;tr style=&quot;height: 15.75pt&quot;&gt;  &lt;td height=&quot;21&quot; align=&quot;right&quot; style=&quot;height: 15.75pt&quot;&gt;31&lt;/td&gt;  &lt;td&gt;Top Word: press&lt;/td&gt; &lt;/tr&gt; &lt;tr style=&quot;height: 15.75pt&quot;&gt;  &lt;td height=&quot;21&quot; align=&quot;right&quot; style=&quot;height: 15.75pt&quot;&gt;32&lt;/td&gt;  &lt;td&gt;Top Word: save&lt;/td&gt; &lt;/tr&gt; &lt;tr style=&quot;height: 15.75pt&quot;&gt;  &lt;td height=&quot;21&quot; align=&quot;right&quot; style=&quot;height: 15.75pt&quot;&gt;33&lt;/td&gt;  &lt;td&gt;Top Word: zoom&lt;/td&gt; &lt;/tr&gt; &lt;tr style=&quot;height: 15.75pt&quot;&gt;  &lt;td height=&quot;21&quot; align=&quot;right&quot; style=&quot;height: 15.75pt&quot;&gt;34&lt;/td&gt;  &lt;td&gt;Top Word: first&lt;/td&gt; &lt;/tr&gt; &lt;tr style=&quot;height: 15.75pt&quot;&gt;  &lt;td height=&quot;21&quot; align=&quot;right&quot; style=&quot;height: 15.75pt&quot;&gt;35&lt;/td&gt;  &lt;td&gt;Top Word: go&lt;/td&gt; &lt;/tr&gt; &lt;tr style=&quot;height: 15.75pt&quot;&gt;  &lt;td height=&quot;21&quot; align=&quot;right&quot; style=&quot;height: 15.75pt&quot;&gt;36&lt;/td&gt;  &lt;td&gt;Top Word: got&lt;/td&gt; &lt;/tr&gt; &lt;tr style=&quot;height: 15.75pt&quot;&gt;  &lt;td height=&quot;21&quot; align=&quot;right&quot; style=&quot;height: 15.75pt&quot;&gt;37&lt;/td&gt;  &lt;td&gt;Top Word: hold&lt;/td&gt; &lt;/tr&gt; &lt;tr style=&quot;height: 15.75pt&quot;&gt;  &lt;td height=&quot;21&quot; align=&quot;right&quot; style=&quot;height: 15.75pt&quot;&gt;38&lt;/td&gt;  &lt;td&gt;Top Word: long&lt;/td&gt; &lt;/tr&gt; &lt;tr style=&quot;height: 15.75pt&quot;&gt;  &lt;td height=&quot;21&quot; align=&quot;right&quot; style=&quot;height: 15.75pt&quot;&gt;39&lt;/td&gt;  &lt;td&gt;Top Word: room&lt;/td&gt; &lt;/tr&gt; &lt;tr style=&quot;height: 15.75pt&quot;&gt;  &lt;td height=&quot;21&quot; align=&quot;right&quot; style=&quot;height: 15.75pt&quot;&gt;40&lt;/td&gt;  &lt;td&gt;Top Word: try&lt;/td&gt; &lt;/tr&gt; &lt;tr style=&quot;height: 15.75pt&quot;&gt;  &lt;td height=&quot;21&quot; align=&quot;right&quot; style=&quot;height: 15.75pt&quot;&gt;41&lt;/td&gt;  &lt;td&gt;Top Word: blue&lt;/td&gt; &lt;/tr&gt; &lt;tr style=&quot;height: 15.75pt&quot;&gt;  &lt;td height=&quot;21&quot; align=&quot;right&quot; style=&quot;height: 15.75pt&quot;&gt;42&lt;/td&gt;  &lt;td&gt;textlength&lt;/td&gt; &lt;/tr&gt; &lt;tr style=&quot;height: 15.75pt&quot;&gt;  &lt;td height=&quot;21&quot; align=&quot;right&quot; style=&quot;height: 15.75pt&quot;&gt;43&lt;/td&gt;  &lt;td&gt;screen UIratio&lt;/td&gt; &lt;/tr&gt; &lt;tr style=&quot;height: 15.75pt&quot;&gt;  &lt;td height=&quot;21&quot; align=&quot;right&quot; style=&quot;height: 15.75pt&quot;&gt;44&lt;/td&gt;  &lt;td&gt;dominantContrast&lt;/td&gt; &lt;/tr&gt;&lt;/tbody&gt;&lt;/table&gt;" style="text;html=1;align=center;verticalAlign=middle;resizable=0;points=[];autosize=1;fontSize=20;" vertex="1" parent="1">
          <mxGeometry x="80" y="1080" width="280" height="1090" as="geometry" />
        </mxCell>
        <mxCell id="SedPjR7rAk7AIs8v2ia8-71" value="Yes" style="edgeStyle=none;rounded=0;orthogonalLoop=1;jettySize=auto;html=1;exitX=0.25;exitY=1;exitDx=0;exitDy=0;entryX=0.5;entryY=0;entryDx=0;entryDy=0;fontSize=20;" edge="1" parent="1" source="SedPjR7rAk7AIs8v2ia8-69" target="SedPjR7rAk7AIs8v2ia8-70">
          <mxGeometry relative="1" as="geometry" />
        </mxCell>
        <mxCell id="SedPjR7rAk7AIs8v2ia8-73" value="No" style="edgeStyle=none;rounded=0;orthogonalLoop=1;jettySize=auto;html=1;exitX=0.75;exitY=1;exitDx=0;exitDy=0;entryX=0.5;entryY=0;entryDx=0;entryDy=0;fontSize=20;" edge="1" parent="1" source="SedPjR7rAk7AIs8v2ia8-69" target="SedPjR7rAk7AIs8v2ia8-72">
          <mxGeometry relative="1" as="geometry" />
        </mxCell>
        <mxCell id="SedPjR7rAk7AIs8v2ia8-69" value="&lt;span style=&quot;color: rgb(0 , 0 , 0) ; font-family: &amp;#34;helvetica&amp;#34; ; font-size: 16px ; font-style: normal ; letter-spacing: normal ; text-indent: 0px ; text-transform: none ; word-spacing: 0px ; background-color: rgb(248 , 249 , 250) ; display: inline ; float: none&quot;&gt;UI: Text&lt;/span&gt;" style="text;whiteSpace=wrap;html=1;fontColor=#333333;fontStyle=0;fontSize=16;fillColor=#f5f5f5;strokeColor=#666666;align=center;verticalAlign=middle;" vertex="1" parent="1">
          <mxGeometry x="590" y="1110" width="120" height="40" as="geometry" />
        </mxCell>
        <mxCell id="SedPjR7rAk7AIs8v2ia8-94" value="No" style="edgeStyle=none;rounded=0;orthogonalLoop=1;jettySize=auto;html=1;exitX=0.75;exitY=1;exitDx=0;exitDy=0;entryX=0.5;entryY=0;entryDx=0;entryDy=0;fontSize=20;" edge="1" parent="1" source="SedPjR7rAk7AIs8v2ia8-70" target="SedPjR7rAk7AIs8v2ia8-95">
          <mxGeometry relative="1" as="geometry" />
        </mxCell>
        <mxCell id="SedPjR7rAk7AIs8v2ia8-96" value="Yes" style="edgeStyle=none;rounded=0;orthogonalLoop=1;jettySize=auto;html=1;exitX=0.25;exitY=1;exitDx=0;exitDy=0;entryX=0.5;entryY=0;entryDx=0;entryDy=0;fontSize=20;" edge="1" parent="1" source="SedPjR7rAk7AIs8v2ia8-70" target="SedPjR7rAk7AIs8v2ia8-93">
          <mxGeometry relative="1" as="geometry" />
        </mxCell>
        <mxCell id="SedPjR7rAk7AIs8v2ia8-70" value="&lt;span style=&quot;color: rgb(0 , 0 , 0) ; font-family: &amp;#34;helvetica&amp;#34; ; font-size: 16px ; font-style: normal ; letter-spacing: normal ; text-indent: 0px ; text-transform: none ; word-spacing: 0px ; background-color: rgb(248 , 249 , 250) ; display: inline ; float: none&quot;&gt;Colour Contrast&amp;lt;18&lt;/span&gt;" style="text;whiteSpace=wrap;html=1;fontColor=#333333;fontStyle=0;fontSize=16;fillColor=#f5f5f5;strokeColor=#666666;align=center;verticalAlign=middle;" vertex="1" parent="1">
          <mxGeometry x="440" y="1240" width="120" height="40" as="geometry" />
        </mxCell>
        <mxCell id="SedPjR7rAk7AIs8v2ia8-75" value="Yes" style="edgeStyle=none;rounded=0;orthogonalLoop=1;jettySize=auto;html=1;exitX=0.25;exitY=1;exitDx=0;exitDy=0;entryX=0.5;entryY=0;entryDx=0;entryDy=0;fontSize=20;" edge="1" parent="1" source="SedPjR7rAk7AIs8v2ia8-72" target="SedPjR7rAk7AIs8v2ia8-74">
          <mxGeometry relative="1" as="geometry" />
        </mxCell>
        <mxCell id="SedPjR7rAk7AIs8v2ia8-78" value="No" style="edgeStyle=none;rounded=0;orthogonalLoop=1;jettySize=auto;html=1;exitX=0.75;exitY=1;exitDx=0;exitDy=0;entryX=0.5;entryY=0;entryDx=0;entryDy=0;fontSize=20;" edge="1" parent="1" source="SedPjR7rAk7AIs8v2ia8-72" target="SedPjR7rAk7AIs8v2ia8-76">
          <mxGeometry relative="1" as="geometry" />
        </mxCell>
        <mxCell id="SedPjR7rAk7AIs8v2ia8-72" value="&lt;span style=&quot;color: rgb(0 , 0 , 0) ; font-family: &amp;#34;helvetica&amp;#34; ; font-size: 16px ; font-style: normal ; letter-spacing: normal ; text-indent: 0px ; text-transform: none ; word-spacing: 0px ; background-color: rgb(248 , 249 , 250) ; display: inline ; float: none&quot;&gt;UI: Highlight&lt;/span&gt;" style="text;whiteSpace=wrap;html=1;fontColor=#333333;fontStyle=0;fontSize=16;fillColor=#f5f5f5;strokeColor=#666666;align=center;verticalAlign=middle;" vertex="1" parent="1">
          <mxGeometry x="730" y="1240" width="120" height="40" as="geometry" />
        </mxCell>
        <mxCell id="SedPjR7rAk7AIs8v2ia8-88" value="Yes" style="edgeStyle=none;rounded=0;orthogonalLoop=1;jettySize=auto;html=1;exitX=0.25;exitY=1;exitDx=0;exitDy=0;entryX=0.5;entryY=0;entryDx=0;entryDy=0;fontSize=20;" edge="1" parent="1" source="SedPjR7rAk7AIs8v2ia8-74" target="SedPjR7rAk7AIs8v2ia8-87">
          <mxGeometry relative="1" as="geometry" />
        </mxCell>
        <mxCell id="SedPjR7rAk7AIs8v2ia8-91" value="No" style="edgeStyle=none;rounded=0;orthogonalLoop=1;jettySize=auto;html=1;exitX=0.75;exitY=1;exitDx=0;exitDy=0;entryX=0.5;entryY=0;entryDx=0;entryDy=0;fontSize=20;" edge="1" parent="1" source="SedPjR7rAk7AIs8v2ia8-74" target="SedPjR7rAk7AIs8v2ia8-92">
          <mxGeometry relative="1" as="geometry">
            <mxPoint x="707" y="1520" as="targetPoint" />
          </mxGeometry>
        </mxCell>
        <mxCell id="SedPjR7rAk7AIs8v2ia8-74" value="&lt;span style=&quot;color: rgb(0 , 0 , 0) ; font-family: &amp;#34;helvetica&amp;#34; ; font-size: 16px ; font-style: normal ; letter-spacing: normal ; text-indent: 0px ; text-transform: none ; word-spacing: 0px ; background-color: rgb(248 , 249 , 250) ; display: inline ; float: none&quot;&gt;Text Length&amp;lt;2.5&lt;/span&gt;" style="text;whiteSpace=wrap;html=1;fontColor=#333333;fontStyle=0;fontSize=16;fillColor=#f5f5f5;strokeColor=#666666;align=center;verticalAlign=middle;" vertex="1" parent="1">
          <mxGeometry x="680" y="1350" width="120" height="40" as="geometry" />
        </mxCell>
        <mxCell id="SedPjR7rAk7AIs8v2ia8-80" value="No" style="edgeStyle=none;rounded=0;orthogonalLoop=1;jettySize=auto;html=1;exitX=0.75;exitY=1;exitDx=0;exitDy=0;entryX=0.5;entryY=0;entryDx=0;entryDy=0;fontSize=20;" edge="1" parent="1" source="SedPjR7rAk7AIs8v2ia8-76" target="SedPjR7rAk7AIs8v2ia8-79">
          <mxGeometry relative="1" as="geometry" />
        </mxCell>
        <mxCell id="SedPjR7rAk7AIs8v2ia8-82" value="Yes" style="edgeStyle=none;rounded=0;orthogonalLoop=1;jettySize=auto;html=1;exitX=0.25;exitY=1;exitDx=0;exitDy=0;entryX=0.5;entryY=0;entryDx=0;entryDy=0;fontSize=20;" edge="1" parent="1" source="SedPjR7rAk7AIs8v2ia8-76" target="SedPjR7rAk7AIs8v2ia8-81">
          <mxGeometry relative="1" as="geometry" />
        </mxCell>
        <mxCell id="SedPjR7rAk7AIs8v2ia8-76" value="&lt;span style=&quot;color: rgb(0 , 0 , 0) ; font-family: &amp;#34;helvetica&amp;#34; ; font-size: 16px ; font-style: normal ; letter-spacing: normal ; text-indent: 0px ; text-transform: none ; word-spacing: 0px ; background-color: rgb(248 , 249 , 250) ; display: inline ; float: none&quot;&gt;Colour Contrast&amp;lt;1.19&lt;/span&gt;" style="text;whiteSpace=wrap;html=1;fontColor=#333333;fontStyle=0;fontSize=16;fillColor=#f5f5f5;strokeColor=#666666;align=center;verticalAlign=middle;" vertex="1" parent="1">
          <mxGeometry x="810" y="1350" width="120" height="40" as="geometry" />
        </mxCell>
        <mxCell id="SedPjR7rAk7AIs8v2ia8-84" value="Yes" style="edgeStyle=none;rounded=0;orthogonalLoop=1;jettySize=auto;html=1;exitX=0.25;exitY=1;exitDx=0;exitDy=0;entryX=0.5;entryY=0;entryDx=0;entryDy=0;fontSize=20;" edge="1" parent="1" source="SedPjR7rAk7AIs8v2ia8-79" target="SedPjR7rAk7AIs8v2ia8-83">
          <mxGeometry relative="1" as="geometry" />
        </mxCell>
        <mxCell id="SedPjR7rAk7AIs8v2ia8-86" value="No" style="edgeStyle=none;rounded=0;orthogonalLoop=1;jettySize=auto;html=1;exitX=0.75;exitY=1;exitDx=0;exitDy=0;entryX=0.5;entryY=0;entryDx=0;entryDy=0;fontSize=20;" edge="1" parent="1" source="SedPjR7rAk7AIs8v2ia8-79" target="SedPjR7rAk7AIs8v2ia8-85">
          <mxGeometry relative="1" as="geometry" />
        </mxCell>
        <mxCell id="SedPjR7rAk7AIs8v2ia8-79" value="&lt;span style=&quot;color: rgb(0 , 0 , 0) ; font-family: &amp;#34;helvetica&amp;#34; ; font-size: 16px ; font-style: normal ; letter-spacing: normal ; text-indent: 0px ; text-transform: none ; word-spacing: 0px ; background-color: rgb(248 , 249 , 250) ; display: inline ; float: none&quot;&gt;UI Size &amp;lt; 0.286&lt;/span&gt;" style="text;whiteSpace=wrap;html=1;fontColor=#333333;fontStyle=0;fontSize=16;fillColor=#f5f5f5;strokeColor=#666666;align=center;verticalAlign=middle;" vertex="1" parent="1">
          <mxGeometry x="880" y="1450" width="120" height="40" as="geometry" />
        </mxCell>
        <mxCell id="SedPjR7rAk7AIs8v2ia8-81" value="&lt;span style=&quot;color: rgb(0 , 0 , 0) ; font-family: &amp;#34;helvetica&amp;#34; ; font-size: 20px ; font-style: normal ; font-weight: 400 ; letter-spacing: normal ; text-indent: 0px ; text-transform: none ; word-spacing: 0px ; background-color: rgb(248 , 249 , 250) ; display: inline ; float: none&quot;&gt;0.031&lt;br&gt;&lt;/span&gt;" style="text;whiteSpace=wrap;html=1;fontSize=20;fontColor=#333333;fillColor=#f5f5f5;strokeColor=#666666;align=center;verticalAlign=middle;" vertex="1" parent="1">
          <mxGeometry x="770" y="1450" width="90" height="40" as="geometry" />
        </mxCell>
        <mxCell id="SedPjR7rAk7AIs8v2ia8-83" value="&lt;span style=&quot;color: rgb(0 , 0 , 0) ; font-family: &amp;#34;helvetica&amp;#34; ; font-size: 20px ; font-style: normal ; font-weight: 400 ; letter-spacing: normal ; text-indent: 0px ; text-transform: none ; word-spacing: 0px ; background-color: rgb(248 , 249 , 250) ; display: inline ; float: none&quot;&gt;-0.191&lt;br&gt;&lt;/span&gt;" style="text;whiteSpace=wrap;html=1;fontSize=20;fontColor=#333333;fillColor=#f5f5f5;strokeColor=#666666;align=center;verticalAlign=middle;" vertex="1" parent="1">
          <mxGeometry x="840" y="1550" width="90" height="40" as="geometry" />
        </mxCell>
        <mxCell id="SedPjR7rAk7AIs8v2ia8-85" value="&lt;span style=&quot;color: rgb(0 , 0 , 0) ; font-family: &amp;#34;helvetica&amp;#34; ; font-size: 20px ; font-style: normal ; font-weight: 400 ; letter-spacing: normal ; text-indent: 0px ; text-transform: none ; word-spacing: 0px ; background-color: rgb(248 , 249 , 250) ; display: inline ; float: none&quot;&gt;-0.663&lt;br&gt;&lt;/span&gt;" style="text;whiteSpace=wrap;html=1;fontSize=20;fontColor=#333333;fillColor=#f5f5f5;strokeColor=#666666;align=center;verticalAlign=middle;" vertex="1" parent="1">
          <mxGeometry x="952" y="1550" width="90" height="40" as="geometry" />
        </mxCell>
        <mxCell id="SedPjR7rAk7AIs8v2ia8-87" value="&lt;span style=&quot;color: rgb(0 , 0 , 0) ; font-family: &amp;#34;helvetica&amp;#34; ; font-size: 20px ; font-style: normal ; font-weight: 400 ; letter-spacing: normal ; text-indent: 0px ; text-transform: none ; word-spacing: 0px ; background-color: rgb(248 , 249 , 250) ; display: inline ; float: none&quot;&gt;0.268&lt;br&gt;&lt;/span&gt;" style="text;whiteSpace=wrap;html=1;fontSize=20;fontColor=#333333;fillColor=#f5f5f5;strokeColor=#666666;align=center;verticalAlign=middle;" vertex="1" parent="1">
          <mxGeometry x="610" y="1440" width="90" height="40" as="geometry" />
        </mxCell>
        <mxCell id="SedPjR7rAk7AIs8v2ia8-92" value="&lt;span style=&quot;color: rgb(0 , 0 , 0) ; font-family: &amp;#34;helvetica&amp;#34; ; font-size: 20px ; font-style: normal ; font-weight: 400 ; letter-spacing: normal ; text-indent: 0px ; text-transform: none ; word-spacing: 0px ; background-color: rgb(248 , 249 , 250) ; display: inline ; float: none&quot;&gt;-0.17&lt;br&gt;&lt;/span&gt;" style="text;whiteSpace=wrap;html=1;fontSize=20;fontColor=#333333;fillColor=#f5f5f5;strokeColor=#666666;align=center;verticalAlign=middle;" vertex="1" parent="1">
          <mxGeometry x="680" y="1520" width="90" height="40" as="geometry" />
        </mxCell>
        <mxCell id="SedPjR7rAk7AIs8v2ia8-101" value="Yes" style="edgeStyle=none;rounded=0;orthogonalLoop=1;jettySize=auto;html=1;exitX=0.25;exitY=1;exitDx=0;exitDy=0;entryX=0.5;entryY=0;entryDx=0;entryDy=0;fontSize=20;" edge="1" parent="1" source="SedPjR7rAk7AIs8v2ia8-93" target="SedPjR7rAk7AIs8v2ia8-100">
          <mxGeometry relative="1" as="geometry" />
        </mxCell>
        <mxCell id="SedPjR7rAk7AIs8v2ia8-105" value="No" style="edgeStyle=none;rounded=0;orthogonalLoop=1;jettySize=auto;html=1;exitX=0.75;exitY=1;exitDx=0;exitDy=0;fontSize=20;" edge="1" parent="1" source="SedPjR7rAk7AIs8v2ia8-93" target="SedPjR7rAk7AIs8v2ia8-104">
          <mxGeometry relative="1" as="geometry" />
        </mxCell>
        <mxCell id="SedPjR7rAk7AIs8v2ia8-93" value="&lt;span style=&quot;color: rgb(0 , 0 , 0) ; font-family: &amp;#34;helvetica&amp;#34; ; font-size: 16px ; font-style: normal ; letter-spacing: normal ; text-indent: 0px ; text-transform: none ; word-spacing: 0px ; background-color: rgb(248 , 249 , 250) ; display: inline ; float: none&quot;&gt;Text Length&amp;lt;0.5&lt;/span&gt;" style="text;whiteSpace=wrap;html=1;fontColor=#333333;fontStyle=0;fontSize=16;fillColor=#f5f5f5;strokeColor=#666666;align=center;verticalAlign=middle;" vertex="1" parent="1">
          <mxGeometry x="323" y="1330" width="120" height="40" as="geometry" />
        </mxCell>
        <mxCell id="SedPjR7rAk7AIs8v2ia8-99" value="Yes" style="edgeStyle=none;rounded=0;orthogonalLoop=1;jettySize=auto;html=1;entryX=0.5;entryY=0;entryDx=0;entryDy=0;fontSize=20;" edge="1" parent="1" source="SedPjR7rAk7AIs8v2ia8-95" target="SedPjR7rAk7AIs8v2ia8-97">
          <mxGeometry relative="1" as="geometry" />
        </mxCell>
        <mxCell id="SedPjR7rAk7AIs8v2ia8-95" value="&lt;span style=&quot;color: rgb(0 , 0 , 0) ; font-family: &amp;#34;helvetica&amp;#34; ; font-size: 16px ; font-style: normal ; letter-spacing: normal ; text-indent: 0px ; text-transform: none ; word-spacing: 0px ; background-color: rgb(248 , 249 , 250) ; display: inline ; float: none&quot;&gt;UI Size&amp;gt;0.1&lt;/span&gt;" style="text;whiteSpace=wrap;html=1;fontColor=#333333;fontStyle=0;fontSize=16;fillColor=#f5f5f5;strokeColor=#666666;align=center;verticalAlign=middle;" vertex="1" parent="1">
          <mxGeometry x="470" y="1340" width="120" height="40" as="geometry" />
        </mxCell>
        <mxCell id="SedPjR7rAk7AIs8v2ia8-97" value="&lt;span style=&quot;color: rgb(0 , 0 , 0) ; font-family: &amp;#34;helvetica&amp;#34; ; font-size: 20px ; font-style: normal ; font-weight: 400 ; letter-spacing: normal ; text-indent: 0px ; text-transform: none ; word-spacing: 0px ; background-color: rgb(248 , 249 , 250) ; display: inline ; float: none&quot;&gt;0.391&lt;br&gt;&lt;/span&gt;" style="text;whiteSpace=wrap;html=1;fontSize=20;fontColor=#333333;fillColor=#f5f5f5;strokeColor=#666666;align=center;verticalAlign=middle;" vertex="1" parent="1">
          <mxGeometry x="470" y="1440" width="90" height="40" as="geometry" />
        </mxCell>
        <mxCell id="SedPjR7rAk7AIs8v2ia8-103" value="Yes" style="edgeStyle=none;rounded=0;orthogonalLoop=1;jettySize=auto;html=1;exitX=0.5;exitY=1;exitDx=0;exitDy=0;entryX=0.5;entryY=0;entryDx=0;entryDy=0;fontSize=20;" edge="1" parent="1" source="SedPjR7rAk7AIs8v2ia8-100" target="SedPjR7rAk7AIs8v2ia8-102">
          <mxGeometry relative="1" as="geometry" />
        </mxCell>
        <mxCell id="SedPjR7rAk7AIs8v2ia8-100" value="&lt;span style=&quot;color: rgb(0 , 0 , 0) ; font-family: &amp;#34;helvetica&amp;#34; ; font-size: 16px ; font-style: normal ; letter-spacing: normal ; text-indent: 0px ; text-transform: none ; word-spacing: 0px ; background-color: rgb(248 , 249 , 250) ; display: inline ; float: none&quot;&gt;UI Size&amp;gt;0.12&lt;/span&gt;" style="text;whiteSpace=wrap;html=1;fontColor=#333333;fontStyle=0;fontSize=16;fillColor=#f5f5f5;strokeColor=#666666;align=center;verticalAlign=middle;" vertex="1" parent="1">
          <mxGeometry x="283" y="1430" width="120" height="40" as="geometry" />
        </mxCell>
        <mxCell id="SedPjR7rAk7AIs8v2ia8-102" value="&lt;span style=&quot;color: rgb(0 , 0 , 0) ; font-family: &amp;#34;helvetica&amp;#34; ; font-size: 20px ; font-style: normal ; font-weight: 400 ; letter-spacing: normal ; text-indent: 0px ; text-transform: none ; word-spacing: 0px ; background-color: rgb(248 , 249 , 250) ; display: inline ; float: none&quot;&gt;0.374&lt;br&gt;&lt;/span&gt;" style="text;whiteSpace=wrap;html=1;fontSize=20;fontColor=#333333;fillColor=#f5f5f5;strokeColor=#666666;align=center;verticalAlign=middle;" vertex="1" parent="1">
          <mxGeometry x="248" y="1520" width="90" height="40" as="geometry" />
        </mxCell>
        <mxCell id="SedPjR7rAk7AIs8v2ia8-107" value="Yes" style="edgeStyle=none;rounded=0;orthogonalLoop=1;jettySize=auto;html=1;exitX=0.25;exitY=1;exitDx=0;exitDy=0;entryX=0.5;entryY=0;entryDx=0;entryDy=0;fontSize=20;" edge="1" parent="1" source="SedPjR7rAk7AIs8v2ia8-104" target="SedPjR7rAk7AIs8v2ia8-106">
          <mxGeometry relative="1" as="geometry" />
        </mxCell>
        <mxCell id="SedPjR7rAk7AIs8v2ia8-109" value="No" style="edgeStyle=none;rounded=0;orthogonalLoop=1;jettySize=auto;html=1;exitX=0.75;exitY=1;exitDx=0;exitDy=0;entryX=0.5;entryY=0;entryDx=0;entryDy=0;fontSize=20;" edge="1" parent="1" source="SedPjR7rAk7AIs8v2ia8-104" target="SedPjR7rAk7AIs8v2ia8-108">
          <mxGeometry relative="1" as="geometry" />
        </mxCell>
        <mxCell id="SedPjR7rAk7AIs8v2ia8-104" value="&lt;span style=&quot;color: rgb(0 , 0 , 0) ; font-family: &amp;#34;helvetica&amp;#34; ; font-size: 16px ; font-style: normal ; letter-spacing: normal ; text-indent: 0px ; text-transform: none ; word-spacing: 0px ; background-color: rgb(248 , 249 , 250) ; display: inline ; float: none&quot;&gt;Colour Contrast&amp;lt;2.13&lt;/span&gt;" style="text;whiteSpace=wrap;html=1;fontColor=#333333;fontStyle=0;fontSize=16;fillColor=#f5f5f5;strokeColor=#666666;align=center;verticalAlign=middle;" vertex="1" parent="1">
          <mxGeometry x="475" y="1650" width="120" height="40" as="geometry" />
        </mxCell>
        <mxCell id="SedPjR7rAk7AIs8v2ia8-106" value="&lt;span style=&quot;color: rgb(0 , 0 , 0) ; font-family: &amp;#34;helvetica&amp;#34; ; font-size: 16px ; font-style: normal ; letter-spacing: normal ; text-indent: 0px ; text-transform: none ; word-spacing: 0px ; background-color: rgb(248 , 249 , 250) ; display: inline ; float: none&quot;&gt;UI Size&amp;lt;0.08&lt;/span&gt;" style="text;whiteSpace=wrap;html=1;fontColor=#333333;fontStyle=0;fontSize=16;fillColor=#f5f5f5;strokeColor=#666666;align=center;verticalAlign=middle;" vertex="1" parent="1">
          <mxGeometry x="455" y="1770" width="120" height="40" as="geometry" />
        </mxCell>
        <mxCell id="SedPjR7rAk7AIs8v2ia8-112" value="Yes" style="edgeStyle=none;rounded=0;orthogonalLoop=1;jettySize=auto;html=1;exitX=0.5;exitY=1;exitDx=0;exitDy=0;entryX=0.5;entryY=0;entryDx=0;entryDy=0;fontSize=20;" edge="1" parent="1" source="SedPjR7rAk7AIs8v2ia8-108" target="SedPjR7rAk7AIs8v2ia8-110">
          <mxGeometry relative="1" as="geometry" />
        </mxCell>
        <mxCell id="SedPjR7rAk7AIs8v2ia8-108" value="&lt;span style=&quot;color: rgb(0 , 0 , 0) ; font-family: &amp;#34;helvetica&amp;#34; ; font-size: 16px ; font-style: normal ; letter-spacing: normal ; text-indent: 0px ; text-transform: none ; word-spacing: 0px ; background-color: rgb(248 , 249 , 250) ; display: inline ; float: none&quot;&gt;Colour Contrast&amp;lt;2.6&lt;/span&gt;" style="text;whiteSpace=wrap;html=1;fontColor=#333333;fontStyle=0;fontSize=16;fillColor=#f5f5f5;strokeColor=#666666;align=center;verticalAlign=middle;" vertex="1" parent="1">
          <mxGeometry x="710" y="1750" width="120" height="40" as="geometry" />
        </mxCell>
        <mxCell id="SedPjR7rAk7AIs8v2ia8-114" value="No" style="edgeStyle=none;rounded=0;orthogonalLoop=1;jettySize=auto;html=1;entryX=0.5;entryY=0;entryDx=0;entryDy=0;fontSize=20;" edge="1" parent="1" source="SedPjR7rAk7AIs8v2ia8-110" target="SedPjR7rAk7AIs8v2ia8-113">
          <mxGeometry relative="1" as="geometry" />
        </mxCell>
        <mxCell id="SedPjR7rAk7AIs8v2ia8-110" value="&lt;span style=&quot;color: rgb(0 , 0 , 0) ; font-family: &amp;#34;helvetica&amp;#34; ; text-align: left&quot;&gt;Virtual Hand&lt;/span&gt;" style="text;whiteSpace=wrap;html=1;fontColor=#333333;fontStyle=0;fontSize=16;fillColor=#f5f5f5;strokeColor=#666666;align=center;verticalAlign=middle;" vertex="1" parent="1">
          <mxGeometry x="770" y="1870" width="120" height="40" as="geometry" />
        </mxCell>
        <mxCell id="SedPjR7rAk7AIs8v2ia8-111" value="&lt;span style=&quot;color: rgb(0 , 0 , 0) ; font-family: &amp;#34;helvetica&amp;#34; ; font-size: 16px ; font-style: normal ; letter-spacing: normal ; text-indent: 0px ; text-transform: none ; word-spacing: 0px ; background-color: rgb(248 , 249 , 250) ; display: inline ; float: none&quot;&gt;Arrow&lt;/span&gt;" style="text;whiteSpace=wrap;html=1;fontColor=#333333;fontStyle=0;fontSize=16;fillColor=#f5f5f5;strokeColor=#666666;align=center;verticalAlign=middle;" vertex="1" parent="1">
          <mxGeometry x="990" y="1970" width="120" height="40" as="geometry" />
        </mxCell>
        <mxCell id="SedPjR7rAk7AIs8v2ia8-113" value="&lt;span style=&quot;color: rgb(0 , 0 , 0) ; font-family: &amp;#34;helvetica&amp;#34; ; font-size: 20px ; font-style: normal ; font-weight: 400 ; letter-spacing: normal ; text-indent: 0px ; text-transform: none ; word-spacing: 0px ; background-color: rgb(248 , 249 , 250) ; display: inline ; float: none&quot;&gt;-0.194&lt;br&gt;&lt;/span&gt;" style="text;whiteSpace=wrap;html=1;fontSize=20;fontColor=#333333;fillColor=#f5f5f5;strokeColor=#666666;align=center;verticalAlign=middle;" vertex="1" parent="1">
          <mxGeometry x="725" y="1970" width="90" height="40" as="geometry" />
        </mxCell>
        <mxCell id="SedPjR7rAk7AIs8v2ia8-115" value="&lt;span style=&quot;color: rgb(0 , 0 , 0) ; font-family: &amp;#34;helvetica&amp;#34; ; font-size: 16px ; font-style: normal ; letter-spacing: normal ; text-indent: 0px ; text-transform: none ; word-spacing: 0px ; background-color: rgb(248 , 249 , 250) ; display: inline ; float: none&quot;&gt;Colour Contrast&amp;lt;2.6&lt;/span&gt;" style="text;whiteSpace=wrap;html=1;fontColor=#333333;fontStyle=0;fontSize=16;fillColor=#f5f5f5;strokeColor=#666666;align=center;verticalAlign=middle;" vertex="1" parent="1">
          <mxGeometry x="930" y="1870" width="120" height="40" as="geometry" />
        </mxCell>
      </root>
    </mxGraphModel>
  </diagram>
</mxfile>
